<svg width="136" height="40" viewBox="0 0 136 40" fill="none" xmlns="http://www.w3.org/2000/svg">
    <path d="M130.975 40.0002H5.97485C5.31642 40.0068 4.6633 39.8819 4.05372 39.633C3.44413 39.384 2.89033 39.016 2.42472 38.5504C1.95912 38.0848 1.59107 37.531 1.34212 36.9214C1.09316 36.3118 0.968305 35.6587 0.974854 35.0002V5.00025C0.968305 4.34181 1.09316 3.68869 1.34212 3.07911C1.59107 2.46952 1.95912 1.91572 2.42472 1.45011C2.89033 0.984511 3.44413 0.616461 4.05372 0.367506C4.6633 0.118552 5.31642 -0.00630444 5.97485 0.000244933H130.975C131.633 -0.00630444 132.286 0.118552 132.896 0.367506C133.506 0.616461 134.059 0.984511 134.525 1.45011C134.991 1.91572 135.359 2.46952 135.608 3.07911C135.857 3.68869 135.981 4.34181 135.975 5.00025V35.0002C135.981 35.6587 135.857 36.3118 135.608 36.9214C135.359 37.531 134.991 38.0848 134.525 38.5504C134.059 39.016 133.506 39.384 132.896 39.633C132.286 39.8819 131.633 40.0068 130.975 40.0002Z" fill="white"/>
    <path d="M130.975 0.800244C132.087 0.806804 133.151 1.25141 133.937 2.03764C134.724 2.82388 135.168 3.88836 135.175 5.00024V35.0002C135.168 36.1121 134.724 37.1766 133.937 37.9628C133.151 38.7491 132.087 39.1937 130.975 39.2002H5.97485C4.86297 39.1937 3.79849 38.7491 3.01225 37.9628C2.22602 37.1766 1.78141 36.1121 1.77485 35.0002V5.00024C1.78141 3.88836 2.22602 2.82388 3.01225 2.03764C3.79849 1.25141 4.86297 0.806804 5.97485 0.800244H130.975ZM130.975 0.000244141H5.97485C4.64999 0.00420096 3.38052 0.532256 2.44369 1.46908C1.50687 2.40591 0.978811 3.67538 0.974854 5.00024V35.0002C0.968305 35.6587 1.09316 36.3118 1.34212 36.9214C1.59107 37.531 1.95912 38.0848 2.42472 38.5504C2.89033 39.016 3.44413 39.384 4.05372 39.633C4.6633 39.8819 5.31642 40.0068 5.97485 40.0002H130.975C131.633 40.0068 132.286 39.8819 132.896 39.633C133.506 39.384 134.059 39.016 134.525 38.5504C134.991 38.0848 135.359 37.531 135.608 36.9214C135.857 36.3118 135.981 35.6587 135.975 35.0002V5.00024C135.971 3.67538 135.443 2.40591 134.506 1.46908C133.569 0.532256 132.3 0.00420096 130.975 0.000244141V0.000244141Z" fill="#A6A6A6"/>
    <path d="M48.3749 10.2003C48.3977 10.5635 48.3475 10.9276 48.2273 11.2711C48.1071 11.6146 47.9192 11.9306 47.6749 12.2003C47.2413 12.637 46.6875 12.9349 46.084 13.0558C45.4806 13.1768 44.8548 13.1154 44.2863 12.8794C43.7179 12.6435 43.2326 12.2437 42.8922 11.7309C42.5518 11.2182 42.3717 10.6157 42.3749 10.0003C42.3713 9.59217 42.449 9.18743 42.6035 8.8097C42.758 8.43196 42.9862 8.08879 43.2748 7.80021C43.5634 7.51163 43.9066 7.28342 44.2843 7.1289C44.662 6.97439 45.0668 6.89666 45.4749 6.90027C45.8929 6.90469 46.3039 7.00747 46.6749 7.20027C47.0317 7.34954 47.3423 7.59115 47.5749 7.90027L47.0749 8.40027C46.8855 8.16186 46.6408 7.97343 46.3619 7.85141C46.083 7.72939 45.7784 7.6775 45.4749 7.70027C45.1725 7.6876 44.8712 7.74407 44.594 7.86537C44.3167 7.98667 44.0708 8.16961 43.8749 8.40027C43.6345 8.61007 43.4462 8.87283 43.3247 9.16784C43.2032 9.46286 43.1519 9.78205 43.1749 10.1003C43.1519 10.4185 43.2032 10.7377 43.3247 11.0327C43.4462 11.3277 43.6345 11.5905 43.8749 11.8003C44.3104 12.2129 44.8763 12.4604 45.4749 12.5003C45.792 12.5136 46.1082 12.4579 46.4018 12.337C46.6953 12.2162 46.959 12.033 47.1749 11.8003C47.3348 11.6443 47.4616 11.4576 47.5475 11.2514C47.6335 11.0452 47.6768 10.8237 47.6749 10.6003H45.4749V9.80027H48.3749V10.2003ZM52.9749 7.70027H50.2749V9.60027H52.7749V10.3003H50.2749V12.2003H52.9749V13.0003H49.4749V7.00027H52.9749V7.70027ZM56.2749 13.0003H55.4749V7.70027H53.7749V7.00027H57.9749V7.70027H56.2749V13.0003ZM60.8749 13.0003V7.00027H61.6749V13.0003H60.8749ZM65.0749 13.0003H64.2749V7.70027H62.5749V7.00027H66.6749V7.70027H64.9749V13.0003H65.0749ZM74.5749 12.2003C74.1413 12.637 73.5875 12.9349 72.984 13.0558C72.3806 13.1768 71.7548 13.1154 71.1863 12.8794C70.6179 12.6435 70.1326 12.2437 69.7922 11.7309C69.4518 11.2182 69.2717 10.6157 69.2749 10.0003C69.2749 9.17809 69.6015 8.3896 70.1828 7.80824C70.7642 7.22687 71.5527 6.90027 72.3749 6.90027C73.197 6.90027 73.9855 7.22687 74.5669 7.80824C75.1483 8.3896 75.4749 9.17809 75.4749 10.0003C75.4862 10.4094 75.4121 10.8164 75.2571 11.1953C75.1021 11.5741 74.8697 11.9164 74.5749 12.2003ZM70.7749 11.7003C71.1991 12.1296 71.7716 12.3801 72.3749 12.4003C72.6772 12.4129 72.9785 12.3565 73.2557 12.2352C73.533 12.1139 73.7789 11.9309 73.9749 11.7003C74.4234 11.2482 74.675 10.6371 74.6749 10.0003C74.6978 9.68205 74.6465 9.36286 74.525 9.06785C74.4035 8.77283 74.2152 8.51007 73.9749 8.30027C73.5507 7.87092 72.9781 7.62042 72.3749 7.60027C72.0725 7.5876 71.7712 7.64407 71.494 7.76537C71.2167 7.88667 70.9708 8.06961 70.7749 8.30027C70.3263 8.75236 70.0747 9.36343 70.0749 10.0003C70.0519 10.3185 70.1032 10.6377 70.2247 10.9327C70.3462 11.2277 70.5345 11.4905 70.7749 11.7003ZM76.5749 13.0003V7.00027H77.4749L80.3749 11.7003V7.00027H81.1749V13.0003H80.3749L77.2749 8.10027V13.0003H76.5749Z" fill="#303037" stroke="#303037" stroke-width="0.2" stroke-miterlimit="10"/>
    <path d="M69.0749 21.8003C68.5067 21.7876 67.9418 21.8901 67.4144 22.1017C66.887 22.3133 66.4079 22.6296 66.006 23.0314C65.6042 23.4333 65.2879 23.9124 65.0763 24.4398C64.8647 24.9673 64.7621 25.5321 64.7749 26.1003C64.7706 26.6661 64.8789 27.2272 65.0935 27.7508C65.3081 28.2745 65.6247 28.7502 66.0248 29.1503C66.4249 29.5505 66.9007 29.867 67.4243 30.0816C67.9479 30.2962 68.509 30.4045 69.0749 30.4003C69.643 30.413 70.2079 30.3104 70.7353 30.0988C71.2627 29.8872 71.7418 29.571 72.1437 29.1691C72.5456 28.7673 72.8618 28.2882 73.0734 27.7607C73.285 27.2333 73.3876 26.6684 73.3749 26.1003C73.396 25.5299 73.2993 24.9613 73.0907 24.43C72.8821 23.8987 72.5661 23.4162 72.1625 23.0126C71.7589 22.609 71.2764 22.2931 70.7451 22.0845C70.2138 21.8759 69.6452 21.7791 69.0749 21.8003ZM69.0749 28.6003C68.4205 28.5489 67.8096 28.2527 67.364 27.7708C66.9185 27.2888 66.671 26.6566 66.671 26.0003C66.671 25.3439 66.9185 24.7117 67.364 24.2298C67.8096 23.7478 68.4205 23.4516 69.0749 23.4003C69.4066 23.4024 69.7344 23.4726 70.0379 23.6067C70.3414 23.7407 70.6141 23.9356 70.8391 24.1794C71.0641 24.4232 71.2367 24.7106 71.346 25.0238C71.4554 25.3371 71.4992 25.6694 71.4749 26.0003C71.4907 26.3292 71.4409 26.658 71.3284 26.9675C71.2159 27.277 71.0429 27.561 70.8195 27.803C70.5961 28.045 70.3268 28.2401 70.0273 28.377C69.7278 28.5139 69.404 28.5898 69.0749 28.6003ZM59.7749 21.8003C59.2067 21.7876 58.6418 21.8901 58.1144 22.1017C57.587 22.3133 57.1079 22.6296 56.706 23.0314C56.3042 23.4333 55.9879 23.9124 55.7763 24.4398C55.5647 24.9673 55.4621 25.5321 55.4749 26.1003C55.4706 26.6661 55.5789 27.2272 55.7935 27.7508C56.0081 28.2745 56.3247 28.7502 56.7248 29.1503C57.1249 29.5505 57.6007 29.867 58.1243 30.0816C58.6479 30.2962 59.209 30.4045 59.7749 30.4003C60.343 30.413 60.9079 30.3104 61.4353 30.0988C61.9627 29.8872 62.4419 29.571 62.8437 29.1691C63.2456 28.7673 63.5618 28.2882 63.7734 27.7607C63.985 27.2333 64.0876 26.6684 64.0749 26.1003C64.096 25.5299 63.9993 24.9613 63.7907 24.43C63.5821 23.8987 63.2661 23.4162 62.8625 23.0126C62.4589 22.609 61.9764 22.2931 61.4451 22.0845C60.9138 21.8759 60.3452 21.7791 59.7749 21.8003ZM59.7749 28.6003C59.1205 28.5489 58.5096 28.2527 58.064 27.7708C57.6185 27.2888 57.371 26.6566 57.371 26.0003C57.371 25.3439 57.6185 24.7117 58.064 24.2298C58.5096 23.7478 59.1205 23.4516 59.7749 23.4003C60.1066 23.4024 60.4344 23.4726 60.7379 23.6067C61.0414 23.7407 61.3141 23.9356 61.5391 24.1794C61.7641 24.4232 61.9367 24.7106 62.046 25.0238C62.1554 25.3371 62.1992 25.6694 62.1749 26.0003C62.1907 26.3292 62.1409 26.658 62.0284 26.9675C61.9159 27.277 61.7429 27.561 61.5195 27.803C61.2961 28.045 61.0268 28.2401 60.7273 28.377C60.4278 28.5139 60.104 28.5898 59.7749 28.6003ZM48.6749 23.1003V24.9003H52.9749C52.9129 25.7584 52.5602 26.5697 51.9749 27.2003C51.5442 27.6328 51.0287 27.9716 50.4608 28.1953C49.8929 28.419 49.2848 28.5228 48.6749 28.5003C48.0474 28.5065 47.4252 28.3858 46.8456 28.1455C46.2659 27.9053 45.7408 27.5503 45.3019 27.102C44.8629 26.6536 44.519 26.1212 44.291 25.5366C44.0629 24.9521 43.9554 24.3274 43.9749 23.7003C43.9639 23.0753 44.0772 22.4544 44.3082 21.8736C44.5393 21.2928 44.8835 20.7637 45.3208 20.3171C45.7581 19.8705 46.2798 19.5153 46.8556 19.272C47.4314 19.0288 48.0498 18.9024 48.6749 18.9003C49.8975 18.9119 51.0728 19.3748 51.9749 20.2003L53.2749 18.9003C52.0684 17.7343 50.4527 17.088 48.7749 17.1003C47.0187 17.1118 45.3363 17.8078 44.0851 19.0403C42.834 20.2727 42.1128 21.9445 42.0749 23.7003C42.1128 25.4561 42.834 27.1278 44.0851 28.3603C45.3363 29.5927 47.0187 30.2887 48.7749 30.3003C49.6349 30.348 50.4947 30.2021 51.2909 29.8732C52.087 29.5444 52.7992 29.041 53.3749 28.4003C54.4304 27.2593 55.0037 25.7543 54.9749 24.2003C54.996 23.8307 54.9623 23.46 54.8749 23.1003H48.6749ZM94.0749 24.5003C93.8292 23.7323 93.3506 23.0598 92.7056 22.576C92.0605 22.0922 91.2809 21.8211 90.4749 21.8003C89.9246 21.8028 89.3806 21.9181 88.8766 22.1391C88.3726 22.36 87.9192 22.6818 87.5444 23.0847C87.1696 23.4877 86.8813 23.9631 86.6974 24.4818C86.5134 25.0004 86.4377 25.5512 86.4749 26.1003C86.4594 26.6607 86.5568 27.2185 86.7611 27.7406C86.9655 28.2627 87.2727 28.7384 87.6644 29.1395C88.0562 29.5406 88.5245 29.8589 89.0417 30.0755C89.5588 30.292 90.1142 30.4025 90.6749 30.4003C91.3716 30.4071 92.0586 30.2362 92.671 29.9038C93.2834 29.5713 93.801 29.0883 94.1749 28.5003L92.7749 27.5003C92.5595 27.8658 92.2525 28.1687 91.8842 28.3792C91.5159 28.5896 91.0991 28.7003 90.6749 28.7003C90.2342 28.7228 89.7971 28.6104 89.4219 28.3782C89.0467 28.1459 88.7512 27.8048 88.5749 27.4003L94.2749 25.0003L94.0749 24.5003ZM88.2749 25.9003C88.254 25.2817 88.4701 24.6785 88.879 24.2139C89.2879 23.7493 89.8587 23.4583 90.4749 23.4003C90.7984 23.3895 91.1186 23.4678 91.4007 23.6265C91.6829 23.7852 91.916 24.0182 92.0749 24.3003L88.2749 25.9003ZM83.5749 30.0003H85.4749V17.5003H83.5749V30.0003ZM80.5749 22.7003C79.9701 22.0766 79.1434 21.7172 78.2749 21.7003C77.1694 21.7517 76.1264 22.2274 75.3628 23.0283C74.5991 23.8292 74.1737 24.8937 74.1749 26.0003C74.1671 26.5456 74.2671 27.0871 74.4691 27.5936C74.6712 28.1002 74.9713 28.5619 75.3522 28.9521C75.7332 29.3424 76.1875 29.6535 76.689 29.8677C77.1906 30.0819 77.7295 30.1949 78.2749 30.2003C78.6922 30.2035 79.1052 30.1157 79.4852 29.943C79.8651 29.7703 80.2029 29.5168 80.4749 29.2003H80.5749V29.8003C80.6311 30.3523 80.4834 30.9059 80.1596 31.3566C79.8359 31.8073 79.3584 32.124 78.8173 32.247C78.2762 32.37 77.7087 32.2907 77.222 32.0243C76.7352 31.7578 76.3628 31.3224 76.1749 30.8003L74.5749 31.5003C74.8934 32.2436 75.4235 32.8769 76.0991 33.3214C76.7748 33.7659 77.5661 34.0019 78.3749 34.0003C80.5749 34.0003 82.3749 32.7003 82.3749 29.6003V22.0003H80.5749V22.7003ZM78.3749 28.6003C77.7205 28.5489 77.1096 28.2527 76.664 27.7708C76.2185 27.2888 75.971 26.6566 75.971 26.0003C75.971 25.3439 76.2185 24.7117 76.664 24.2298C77.1096 23.7478 77.7205 23.4516 78.3749 23.4003C78.6988 23.4135 79.0168 23.492 79.3096 23.6312C79.6024 23.7704 79.8641 23.9673 80.0789 24.2101C80.2938 24.453 80.4573 24.7367 80.5597 25.0443C80.6621 25.352 80.7013 25.6771 80.6749 26.0003C80.7013 26.3234 80.6621 26.6486 80.5597 26.9562C80.4573 27.2638 80.2938 27.5476 80.0789 27.7904C79.8641 28.0333 79.6024 28.2302 79.3096 28.3693C79.0168 28.5085 78.6988 28.5871 78.3749 28.6003ZM102.775 17.5003H98.2749V30.0003H100.175V25.3003H102.775C103.809 25.3003 104.801 24.8894 105.533 24.158C106.264 23.4266 106.675 22.4346 106.675 21.4003C106.675 20.3659 106.264 19.3739 105.533 18.6426C104.801 17.9112 103.809 17.5003 102.775 17.5003ZM102.875 23.5003H100.175V19.2003H102.875C103.441 19.1997 103.986 19.4177 104.396 19.8089C104.806 20.2001 105.049 20.7343 105.075 21.3003C105.053 21.8767 104.814 22.4236 104.406 22.8315C103.998 23.2394 103.451 23.4783 102.875 23.5003ZM114.375 21.7003C113.697 21.6461 113.019 21.7986 112.43 22.1378C111.841 22.4771 111.368 22.987 111.075 23.6003L112.775 24.3003C112.941 24.002 113.19 23.7582 113.492 23.5985C113.793 23.4388 114.135 23.3699 114.475 23.4003C114.949 23.3646 115.419 23.5098 115.79 23.8067C116.161 24.1036 116.406 24.5301 116.475 25.0003V25.1003C115.893 24.7769 115.24 24.605 114.575 24.6003C112.775 24.6003 110.975 25.6003 110.975 27.4003C110.991 27.7887 111.085 28.17 111.251 28.5218C111.416 28.8737 111.65 29.1891 111.938 29.4497C112.227 29.7103 112.564 29.9109 112.931 30.0398C113.298 30.1686 113.687 30.2232 114.075 30.2003C114.543 30.2159 115.008 30.1143 115.427 29.9048C115.846 29.6952 116.206 29.3843 116.475 29.0003H116.575V30.0003H118.375V25.2003C118.302 24.2083 117.841 23.285 117.093 22.6301C116.344 21.9751 115.368 21.6411 114.375 21.7003ZM114.175 28.6003C113.575 28.6003 112.675 28.3003 112.675 27.5003C112.675 26.5003 113.775 26.2003 114.675 26.2003C115.265 26.2022 115.846 26.339 116.375 26.6003C116.299 27.1378 116.037 27.6318 115.636 27.997C115.234 28.3622 114.717 28.5756 114.175 28.6003ZM124.675 22.0003L122.575 27.4003H122.475L120.275 22.0003H118.275L121.575 29.6003L119.675 33.8003H121.575L126.675 22.0003H124.675ZM107.875 30.0003H109.775V17.5003H107.875V30.0003Z" fill="#303037"/>
    <path d="M11.3749 7.50024C11.0662 7.898 10.923 8.39948 10.9749 8.90024V31.0002C10.9531 31.5142 11.1325 32.0163 11.4749 32.4002L11.5749 32.5002L23.9749 20.1002V19.9002L11.3749 7.50024Z" fill="url(#paint0_linear)"/>
    <path d="M27.9749 24.3003L23.8749 20.2003V19.9003L27.9749 15.8003L28.0749 15.9003L32.9749 18.7003C34.3749 19.5003 34.3749 20.8003 32.9749 21.6003L27.9749 24.3003Z" fill="url(#paint1_linear)"/>
    <path d="M28.0749 24.2002L23.8749 20.0002L11.3749 32.5002C11.8749 33.0002 12.5749 33.0002 13.4749 32.6002L28.0749 24.2002Z" fill="url(#paint2_linear)"/>
    <path d="M28.0749 15.8003L13.4749 7.50031C13.17 7.26471 12.7913 7.14538 12.4064 7.1637C12.0216 7.18203 11.6559 7.33681 11.3749 7.60031L23.8749 20.0003L28.0749 15.8003Z" fill="url(#paint3_linear)"/>
    <path opacity="0.2" d="M27.9749 24.1002L13.4749 32.3002C13.1885 32.5216 12.8368 32.6417 12.4749 32.6417C12.1129 32.6417 11.7612 32.5216 11.4749 32.3002L11.3749 32.4002L11.4749 32.5002C11.7612 32.7216 12.1129 32.8417 12.4749 32.8417C12.8368 32.8417 13.1885 32.7216 13.4749 32.5002L27.9749 24.1002Z" fill="#303037"/>
    <path opacity="0.12" d="M11.3749 32.3002C11.0662 31.9025 10.923 31.401 10.9749 30.9002V31.0002C10.9531 31.5142 11.1325 32.0163 11.4749 32.4002V32.3002H11.3749ZM32.9749 21.3002L27.9749 24.1002L28.0749 24.2002L32.9749 21.4002C33.2534 21.2803 33.4938 21.0865 33.6701 20.8397C33.8464 20.5929 33.9518 20.3026 33.9749 20.0002C33.9749 20.5002 33.5749 20.9002 32.9749 21.3002Z" fill="#303037"/>
    <path opacity="0.25" d="M13.4749 7.60027L32.9749 18.7003C33.5749 19.1003 33.9749 19.5003 33.9749 20.0003C33.9518 19.6979 33.8464 19.4076 33.6701 19.1608C33.4938 18.914 33.2534 18.7202 32.9749 18.6003L13.4749 7.50027C12.0749 6.70027 10.9749 7.30027 10.9749 8.90027V9.00027C10.9749 7.50027 12.0749 6.80027 13.4749 7.60027Z" fill="white"/>
    <defs>
        <linearGradient id="paint0_linear" x1="22.7779" y1="33.3002" x2="2.88989" y2="27.9128" gradientUnits="userSpaceOnUse">
            <stop stop-color="#00A0FF"/>
            <stop offset="0.007" stop-color="#00A1FF"/>
            <stop offset="0.26" stop-color="#00BEFF"/>
            <stop offset="0.512" stop-color="#00D2FF"/>
            <stop offset="0.76" stop-color="#00DFFF"/>
            <stop offset="1" stop-color="#00E3FF"/>
        </linearGradient>
        <linearGradient id="paint1_linear" x1="34.8064" y1="21.9968" x2="10.6088" y2="21.9968" gradientUnits="userSpaceOnUse">
            <stop stop-color="#FFE000"/>
            <stop offset="0.409" stop-color="#FFBD00"/>
            <stop offset="0.775" stop-color="#FFA500"/>
            <stop offset="1" stop-color="#FF9C00"/>
        </linearGradient>
        <linearGradient id="paint2_linear" x1="25.8037" y1="19.7038" x2="9.83544" y2="-7.10415" gradientUnits="userSpaceOnUse">
            <stop stop-color="#FF3A44"/>
            <stop offset="1" stop-color="#C31162"/>
        </linearGradient>
        <linearGradient id="paint3_linear" x1="8.26865" y1="41.8385" x2="15.3565" y2="29.8483" gradientUnits="userSpaceOnUse">
            <stop stop-color="#32A071"/>
            <stop offset="0.069" stop-color="#2DA771"/>
            <stop offset="0.476" stop-color="#15CF74"/>
            <stop offset="0.801" stop-color="#06E775"/>
            <stop offset="1" stop-color="#00F076"/>
        </linearGradient>
    </defs>
</svg>
