<svg width="135" height="40" viewBox="0 0 135 40" fill="none" xmlns="http://www.w3.org/2000/svg">
    <path d="M134.081 35.2722C134.081 35.7756 133.981 36.274 133.789 36.7389C133.596 37.2039 133.313 37.6262 132.957 37.9819C132.601 38.3376 132.178 38.6196 131.713 38.8119C131.248 39.0041 130.749 39.1028 130.246 39.1022H4.72989C3.71287 39.1033 2.73705 38.7004 2.01696 37.9822C1.29688 37.264 0.891483 36.2893 0.889893 35.2722V4.72524C0.891747 3.70793 1.2971 2.7329 2.01701 2.01412C2.73692 1.29533 3.71258 0.891499 4.72989 0.891235H130.244C130.747 0.891235 131.246 0.990431 131.711 1.18316C132.177 1.37588 132.6 1.65837 132.956 2.01448C133.312 2.37059 133.594 2.79336 133.787 3.25864C133.98 3.72393 134.079 4.22262 134.079 4.72624V35.2722H134.081Z" fill="white"/>
    <path d="M130.246 39.9932H4.731C3.47816 39.9932 2.27648 39.4963 1.38956 38.6115C0.502642 37.7266 0.00291296 36.5261 0 35.2732L0 4.72624C0.00211826 3.47262 0.501401 2.27101 1.38832 1.38503C2.27524 0.499049 3.47737 0.00103679 4.731 0.000244141H130.245C131.498 0.00156469 132.7 0.499746 133.587 1.38561C134.474 2.27148 134.973 3.47278 134.976 4.72624V35.2722C134.974 36.5252 134.474 37.7259 133.587 38.611C132.701 39.4961 131.499 39.9932 130.246 39.9932Z" fill="#A6A6A6"/>
    <path d="M134.081 35.2722C134.081 35.7756 133.981 36.274 133.789 36.7389C133.596 37.2039 133.313 37.6262 132.957 37.9819C132.601 38.3376 132.178 38.6196 131.713 38.8119C131.248 39.0041 130.749 39.1028 130.246 39.1022H4.72989C3.71287 39.1033 2.73705 38.7004 2.01696 37.9822C1.29688 37.264 0.891483 36.2893 0.889893 35.2722V4.72524C0.891747 3.70793 1.2971 2.7329 2.01701 2.01412C2.73692 1.29533 3.71258 0.891499 4.72989 0.891235H130.244C130.747 0.891235 131.246 0.990431 131.711 1.18316C132.177 1.37588 132.6 1.65837 132.956 2.01448C133.312 2.37059 133.594 2.79336 133.787 3.25864C133.98 3.72393 134.079 4.22262 134.079 4.72624V35.2722H134.081Z" fill="white"/>
    <path d="M30.138 19.7863C30.151 18.8084 30.411 17.8497 30.8939 16.9993C31.3768 16.1489 32.0669 15.4344 32.9 14.9223C32.3703 14.1664 31.6717 13.5444 30.8597 13.1056C30.0477 12.6668 29.1446 12.4232 28.222 12.3943C26.254 12.1873 24.346 13.5713 23.343 13.5713C22.321 13.5713 20.777 12.4143 19.113 12.4483C18.0372 12.4832 16.9889 12.7964 16.0702 13.3572C15.1515 13.918 14.3938 14.7074 13.871 15.6483C11.604 19.5713 13.295 25.3373 15.471 28.5083C16.557 30.0623 17.827 31.7953 19.488 31.7343C21.114 31.6683 21.721 30.6993 23.683 30.6993C25.627 30.6993 26.197 31.7343 27.892 31.6993C29.637 31.6723 30.735 30.1393 31.783 28.5723C32.564 27.4662 33.1648 26.2434 33.563 24.9493C32.5481 24.5202 31.6821 23.8018 31.073 22.8836C30.4639 21.9654 30.1387 20.8881 30.138 19.7863ZM26.938 10.3073C27.8891 9.16625 28.3576 7.69931 28.244 6.21826C26.7913 6.37114 25.4494 7.06514 24.485 8.16226C24.0138 8.69838 23.6529 9.32213 23.423 9.99786C23.1931 10.6736 23.0986 11.388 23.145 12.1003C23.8716 12.1079 24.5904 11.9505 25.2472 11.6399C25.9041 11.3293 26.4819 10.8736 26.937 10.3073H26.938Z" fill="#303037"/>
    <path d="M53.688 31.5073H51.416L50.171 27.5983H45.845L44.66 31.5073H42.448L46.735 18.1983H49.382L53.688 31.5073ZM49.797 25.9573L48.672 22.4823C48.5527 22.127 48.329 21.2913 48.001 19.9753H47.961C47.8277 20.5413 47.617 21.377 47.329 22.4823L46.223 25.9573H49.797ZM64.69 26.5903C64.7676 28.004 64.2904 29.3921 63.36 30.4593C62.9851 30.8684 62.5272 31.1927 62.0169 31.4107C61.5067 31.6287 60.9558 31.7352 60.401 31.7233C59.8635 31.7675 59.3242 31.664 58.8411 31.4242C58.3581 31.1844 57.9497 30.8172 57.66 30.3623V35.3983H55.527V25.0643C55.527 24.039 55.5007 22.9876 55.448 21.9103H57.324L57.443 23.4313H57.483C57.8062 22.9366 58.2405 22.5242 58.7513 22.2269C59.262 21.9297 59.8351 21.7559 60.4249 21.7192C61.0147 21.6826 61.6049 21.7843 62.1485 22.016C62.6921 22.2478 63.1741 22.6034 63.556 23.0543C64.3471 24.0584 64.7491 25.3144 64.688 26.5913L64.69 26.5903ZM62.517 26.6683C62.5503 25.8512 62.3295 25.0438 61.885 24.3573C61.6789 24.0572 61.401 23.8134 61.0767 23.6481C60.7524 23.4827 60.3919 23.401 60.028 23.4103C59.5039 23.41 58.9966 23.5952 58.596 23.9333C58.1683 24.2822 57.8723 24.7665 57.757 25.3063C57.6982 25.5179 57.6646 25.7358 57.657 25.9553V27.5553C57.6396 28.2046 57.869 28.8364 58.299 29.3233C58.5069 29.5591 58.7643 29.746 59.0528 29.8706C59.3413 29.9953 59.6539 30.0546 59.968 30.0443C60.3334 30.0588 60.6965 29.9815 61.0243 29.8194C61.352 29.6573 61.6339 29.4155 61.844 29.1163C62.3218 28.3926 62.5568 27.5355 62.515 26.6693L62.517 26.6683ZM75.731 26.5903C75.8088 28.004 75.3315 29.3922 74.401 30.4593C74.026 30.8685 73.5679 31.1929 73.0575 31.4109C72.547 31.6289 71.9959 31.7354 71.441 31.7233C70.9035 31.7675 70.3642 31.664 69.8811 31.4242C69.3981 31.1844 68.9897 30.8172 68.7 30.3623V35.3983H66.567V25.0643C66.567 24.039 66.5407 22.9876 66.488 21.9103H68.364L68.483 23.4313H68.523C68.8469 22.9373 69.2815 22.5255 69.7923 22.2288C70.3031 21.9321 70.876 21.7585 71.4656 21.7219C72.0552 21.6853 72.6452 21.7867 73.1888 22.018C73.7324 22.2493 74.2145 22.6041 74.597 23.0543C75.3873 24.0588 75.7889 25.3146 75.728 26.5913L75.731 26.5903ZM73.557 26.6683C73.59 25.851 73.3688 25.0437 72.924 24.3573C72.7183 24.0573 72.4408 23.8136 72.1168 23.6482C71.7928 23.4828 71.4326 23.401 71.069 23.4103C70.5443 23.4103 70.0365 23.5955 69.635 23.9333C69.2075 24.2822 68.9119 24.7666 68.797 25.3063C68.7388 25.5181 68.7052 25.7358 68.697 25.9553V27.5553C68.6802 28.2043 68.9092 28.8358 69.338 29.3233C69.5463 29.5591 69.8041 29.7459 70.0929 29.8706C70.3818 29.9952 70.6946 30.0545 71.009 30.0443C71.3744 30.059 71.7376 29.9818 72.0654 29.8196C72.3932 29.6575 72.675 29.4157 72.885 29.1163C73.3625 28.3924 73.5971 27.5354 73.555 26.6693L73.557 26.6683ZM88.075 27.7733C88.0919 28.2926 87.9947 28.8093 87.7903 29.2871C87.5859 29.7648 87.2793 30.1919 86.892 30.5383C85.8719 31.3671 84.578 31.7829 83.266 31.7033C82.0615 31.7609 80.8656 31.4733 79.819 30.8743L80.312 29.0973C81.244 29.65 82.3095 29.9371 83.393 29.9273C84.0622 29.968 84.725 29.7762 85.269 29.3843C85.4868 29.2121 85.6612 28.9912 85.7781 28.7394C85.895 28.4875 85.9511 28.2118 85.942 27.9343C85.9473 27.6814 85.9009 27.43 85.8057 27.1956C85.7104 26.9613 85.5683 26.7488 85.388 26.5713C84.853 26.1062 84.2276 25.7569 83.551 25.5453C81.2177 24.6786 80.051 23.408 80.051 21.7333C80.0389 21.2214 80.1438 20.7134 80.3576 20.2481C80.5714 19.7829 80.8886 19.3725 81.285 19.0483C82.212 18.3151 83.3735 17.9431 84.554 18.0013C85.5976 17.9647 86.6345 18.1815 87.576 18.6333L87.041 20.3713C86.2535 19.955 85.3736 19.7445 84.483 19.7593C83.8468 19.7211 83.2187 19.9179 82.718 20.3123C82.5478 20.4638 82.4124 20.6502 82.3209 20.8589C82.2294 21.0675 82.1841 21.2935 82.188 21.5213C82.184 21.7704 82.2372 22.0171 82.3435 22.2425C82.4497 22.4679 82.6063 22.6659 82.801 22.8213C83.3873 23.264 84.0405 23.6104 84.736 23.8473C85.6924 24.184 86.5577 24.7378 87.264 25.4653C87.8132 26.1065 88.1019 26.9305 88.073 27.7743L88.075 27.7733ZM95.145 23.5103H92.788V28.1693C92.788 29.3546 93.2027 29.9466 94.032 29.9453C94.3506 29.9524 94.6689 29.9188 94.979 29.8453L95.038 31.4643C94.5029 31.6389 93.9415 31.7188 93.379 31.7003C93.0136 31.7207 92.6482 31.6624 92.3073 31.5294C91.9664 31.3963 91.658 31.1917 91.403 30.9293C90.8577 30.1829 90.6048 29.2625 90.692 28.3423V23.5053H89.292V21.9053H90.692V20.1483L92.788 19.5213V21.9103H95.139L95.145 23.5103ZM105.731 26.6293C105.783 27.9564 105.332 29.2542 104.467 30.2623C104.023 30.7474 103.478 31.1296 102.871 31.382C102.264 31.6344 101.609 31.7509 100.952 31.7233C100.322 31.751 99.6942 31.64 99.1122 31.3981C98.5302 31.1562 98.0085 30.7892 97.584 30.3233C96.7324 29.3473 96.2841 28.0838 96.33 26.7893C96.2767 25.4512 96.7396 24.1437 97.623 23.1373C98.0664 22.6616 98.6079 22.288 99.21 22.0425C99.8121 21.7969 100.46 21.6853 101.11 21.7153C101.744 21.6888 102.377 21.8002 102.964 22.0419C103.551 22.2836 104.078 22.6498 104.51 23.1153C105.35 24.0887 105.785 25.3461 105.728 26.6303L105.731 26.6293ZM103.52 26.6783C103.542 25.8854 103.345 25.1019 102.949 24.4143C102.768 24.0637 102.493 23.7708 102.154 23.5687C101.815 23.3667 101.426 23.2637 101.032 23.2713C100.632 23.2599 100.236 23.361 99.8905 23.563C99.5448 23.7651 99.2626 24.06 99.076 24.4143C98.677 25.1136 98.479 25.9096 98.504 26.7143C98.4812 27.5077 98.6792 28.2919 99.076 28.9793C99.2649 29.3265 99.5444 29.616 99.8847 29.8171C100.225 30.0183 100.613 30.1234 101.009 30.1215C101.404 30.1195 101.791 30.0105 102.13 29.8061C102.468 29.6016 102.744 29.3093 102.93 28.9603C103.333 28.2691 103.537 27.4794 103.517 26.6793L103.52 26.6783ZM112.666 23.7853C112.444 23.7453 112.219 23.7255 111.994 23.7263C111.656 23.7104 111.32 23.78 111.016 23.9286C110.712 24.0771 110.45 24.2999 110.255 24.5763C109.882 25.1378 109.696 25.8027 109.723 26.4763V31.5123H107.588V24.9373C107.588 23.93 107.567 22.923 107.526 21.9163H109.388L109.466 23.7523H109.525C109.727 23.1535 110.097 22.6255 110.591 22.2313C111.036 21.8982 111.577 21.7179 112.133 21.7173C112.311 21.7164 112.49 21.7294 112.666 21.7563V23.7853ZM122.204 26.2543C122.209 26.5784 122.183 26.9022 122.126 27.2213H115.726C115.712 27.6296 115.787 28.036 115.948 28.4117C116.108 28.7874 116.349 29.1232 116.654 29.3953C117.25 29.8606 117.992 30.0982 118.747 30.0653C119.631 30.0773 120.509 29.9236 121.336 29.6123L121.67 31.0913C120.65 31.5084 119.554 31.7103 118.452 31.6843C117.809 31.7196 117.165 31.6213 116.561 31.3955C115.958 31.1697 115.407 30.8213 114.945 30.3723C114.51 29.8986 114.173 29.3432 113.955 28.7382C113.736 28.1332 113.64 27.4907 113.672 26.8483C113.625 25.5416 114.046 24.261 114.858 23.2363C115.257 22.7345 115.769 22.3337 116.352 22.0664C116.935 21.799 117.573 21.6726 118.214 21.6973C118.826 21.6634 119.436 21.7871 119.986 22.0566C120.536 22.326 121.008 22.7322 121.356 23.2363C121.943 24.131 122.239 25.1857 122.202 26.2553L122.204 26.2543ZM120.17 25.7013C120.199 25.1259 120.055 24.5551 119.756 24.0623C119.58 23.7737 119.329 23.5384 119.029 23.3816C118.73 23.2248 118.393 23.1525 118.056 23.1723C117.723 23.1659 117.394 23.2419 117.097 23.3935C116.8 23.5451 116.546 23.7676 116.356 24.0413C115.993 24.5231 115.774 25.098 115.725 25.6993L120.17 25.7013Z" fill="#303037"/>
    <path d="M45.2281 13.4932C44.7157 13.4961 44.2036 13.47 43.6941 13.4152V6.9802C44.2916 6.88792 44.8955 6.84245 45.5001 6.8442C47.9461 6.8442 49.0721 8.0442 49.0721 10.0082C49.0721 12.2702 47.7401 13.4932 45.2281 13.4932ZM45.5861 7.6692C45.3032 7.66391 45.0205 7.68669 44.7421 7.7372V12.6292C44.9772 12.654 45.2137 12.6637 45.4501 12.6582C45.7977 12.6911 46.1483 12.6449 46.4757 12.5233C46.803 12.4017 47.0986 12.2076 47.3405 11.9557C47.5823 11.7038 47.7641 11.4005 47.8722 11.0684C47.9804 10.7364 48.0121 10.3842 47.9651 10.0382C48.0031 9.71706 47.9676 9.39148 47.8614 9.08606C47.7551 8.78064 47.5808 8.50337 47.3517 8.27518C47.1225 8.047 46.8445 7.87388 46.5387 7.7689C46.2328 7.66392 45.9071 7.62983 45.5861 7.6692ZM52.5861 13.5422C52.2731 13.547 51.9626 13.4863 51.6745 13.364C51.3864 13.2417 51.1271 13.0605 50.9132 12.8321C50.6992 12.6036 50.5354 12.333 50.4322 12.0375C50.3291 11.742 50.2888 11.4282 50.3141 11.1162C50.2867 10.794 50.3276 10.4696 50.434 10.1643C50.5405 9.85896 50.7101 9.5795 50.9319 9.34416C51.1536 9.10881 51.4225 8.92287 51.721 8.79847C52.0195 8.67407 52.3408 8.61401 52.6641 8.6222C52.977 8.61473 53.288 8.6733 53.5767 8.79409C53.8655 8.91489 54.1255 9.0952 54.3399 9.32326C54.5543 9.55132 54.7182 9.82201 54.8209 10.1177C54.9237 10.4133 54.9629 10.7273 54.9361 11.0392C54.9631 11.362 54.9219 11.6869 54.8153 11.9927C54.7086 12.2986 54.5388 12.5786 54.3169 12.8146C54.0951 13.0506 53.826 13.2374 53.5274 13.3627C53.2287 13.4881 52.907 13.5492 52.5831 13.5422H52.5861ZM52.6261 9.3882C51.8691 9.3882 51.3841 10.0962 51.3841 11.0882C51.3841 12.0592 51.8841 12.7672 52.6161 12.7672C53.3481 12.7672 53.8481 12.0102 53.8481 11.0672C53.8451 10.1052 53.3601 9.3872 52.6231 9.3872L52.6261 9.3882ZM62.7971 8.7192L61.3211 13.4352H60.3601L59.7491 11.3872C59.5971 10.8863 59.4706 10.3779 59.3701 9.8642H59.3501C59.2634 10.3808 59.137 10.89 58.9721 11.3872L58.3221 13.4352H57.3511L55.9631 8.7192H57.0401L57.5741 10.9612C57.7001 11.4945 57.8067 11.9992 57.8941 12.4752H57.9141C57.9911 12.0752 58.1141 11.5822 58.3021 10.9752L58.9721 8.7242H59.8261L60.4671 10.9242C60.6221 11.4582 60.7481 11.9822 60.8461 12.4772H60.8741C60.9504 11.9537 61.0573 11.4352 61.1941 10.9242L61.7671 8.7242H62.7961L62.7971 8.7192ZM68.2291 13.4352H67.1811V10.7292C67.1811 9.8952 66.8611 9.4772 66.2301 9.4772C66.0849 9.4824 65.9421 9.51662 65.8103 9.57785C65.6785 9.63909 65.5602 9.72608 65.4626 9.83372C65.3649 9.94137 65.2898 10.0675 65.2416 10.2046C65.1934 10.3417 65.1732 10.4871 65.1821 10.6322V13.4372H64.1341V10.0662C64.1341 9.6492 64.1241 9.2022 64.0951 8.7172H65.0171L65.0661 9.4452H65.0951C65.2499 9.18748 65.4703 8.97543 65.7338 8.83067C65.9973 8.68592 66.2945 8.61364 66.5951 8.6212C67.5851 8.6212 68.2361 9.3782 68.2361 10.6102V13.4342L68.2291 13.4352ZM71.1201 13.4352H70.0711V6.5542H71.1201V13.4352ZM74.9421 13.5422C74.6292 13.5468 74.3188 13.486 74.0307 13.3637C73.7427 13.2413 73.4834 13.0601 73.2695 12.8317C73.0556 12.6033 72.8918 12.3327 72.7886 12.0373C72.6853 11.7419 72.645 11.4281 72.6701 11.1162C72.6427 10.7941 72.6836 10.4698 72.79 10.1645C72.8963 9.85928 73.0659 9.57987 73.2875 9.34454C73.5092 9.10921 73.778 8.92325 74.0763 8.79879C74.3747 8.67432 74.6959 8.61415 75.0191 8.6222C75.332 8.61473 75.643 8.6733 75.9317 8.79409C76.2205 8.91489 76.4805 9.0952 76.6949 9.32326C76.9093 9.55132 77.0732 9.82201 77.1759 10.1177C77.2786 10.4133 77.3179 10.7273 77.2911 11.0392C77.3182 11.3619 77.2772 11.6866 77.1707 11.9924C77.0642 12.2982 76.8946 12.5782 76.673 12.8142C76.4513 13.0502 76.1824 13.237 75.8839 13.3624C75.5854 13.4878 75.2638 13.5491 74.9401 13.5422H74.9421ZM74.9811 9.3882C74.2241 9.3882 73.7391 10.0962 73.7391 11.0882C73.7391 12.0592 74.2391 12.7672 74.9701 12.7672C75.7011 12.7672 76.2021 12.0102 76.2021 11.0672C76.2001 10.1052 75.7161 9.3872 74.9781 9.3872L74.9811 9.3882ZM81.4241 13.4352L81.3481 12.8922H81.3201C81.1617 13.1061 80.9527 13.2775 80.7119 13.3909C80.4711 13.5043 80.2059 13.5563 79.9401 13.5422C79.7525 13.5522 79.5649 13.5236 79.3888 13.4581C79.2128 13.3927 79.052 13.2917 78.9165 13.1616C78.7811 13.0315 78.6738 12.8749 78.6013 12.7016C78.5288 12.5284 78.4926 12.342 78.4951 12.1542C78.4951 10.9902 79.5041 10.3882 81.2521 10.3882V10.3012C81.2521 9.6802 80.9231 9.3692 80.2731 9.3692C79.8369 9.36158 79.4082 9.48338 79.0411 9.7192L78.8281 9.0302C79.3189 8.74437 79.8805 8.60295 80.4481 8.6222C81.6801 8.6222 82.3031 9.2722 82.3031 10.5732V12.3092C82.296 12.6857 82.3187 13.0623 82.3711 13.4352H81.4261H81.4241ZM81.2801 11.0862C80.1161 11.0862 79.5311 11.3682 79.5311 12.0372C79.5206 12.135 79.5318 12.2339 79.564 12.3269C79.5962 12.4198 79.6485 12.5045 79.7171 12.5749C79.7858 12.6453 79.8692 12.6997 79.9613 12.7341C80.0535 12.7686 80.1521 12.7823 80.2501 12.7742C80.5135 12.782 80.7694 12.6856 80.962 12.5058C81.1547 12.3261 81.2687 12.0775 81.2791 11.8142L81.2801 11.0862ZM87.3921 13.4352L87.3431 12.6782H87.3141C87.174 12.9548 86.9558 13.1842 86.6864 13.3378C86.4171 13.4914 86.1085 13.5625 85.7991 13.5422C85.5083 13.5213 85.2248 13.4415 84.9658 13.3077C84.7068 13.1738 84.4778 12.9887 84.2926 12.7636C84.1074 12.5384 83.9699 12.278 83.8885 11.998C83.8071 11.7181 83.7835 11.4245 83.8191 11.1352C83.7808 10.833 83.8046 10.5261 83.8891 10.2334C83.9735 9.94069 84.1169 9.66831 84.3103 9.43295C84.5037 9.19758 84.7432 9.00419 85.014 8.8646C85.2847 8.72502 85.5812 8.64219 85.8851 8.6212C86.1444 8.59541 86.4059 8.6416 86.6407 8.75468C86.8755 8.86776 87.0746 9.04336 87.2161 9.2622H87.2371V6.5542H88.2861V12.1642C88.2861 12.6202 88.2971 13.0472 88.3251 13.4352H87.3921ZM87.2371 10.6602C87.2482 10.507 87.2283 10.3531 87.1785 10.2078C87.1288 10.0625 87.0501 9.92875 86.9474 9.81454C86.8447 9.70034 86.72 9.60805 86.5808 9.54321C86.4415 9.47837 86.2906 9.44231 86.1371 9.4372C85.3601 9.4372 84.8841 10.1262 84.8841 11.0962C84.8841 12.0472 85.3771 12.6962 86.1161 12.6962C86.2728 12.6896 86.4265 12.6518 86.5684 12.5849C86.7102 12.5181 86.8372 12.4236 86.942 12.3069C87.0468 12.1903 87.1273 12.0539 87.1786 11.9057C87.23 11.7576 87.2512 11.6007 87.2411 11.4442L87.2371 10.6602ZM94.9371 13.5422C94.6242 13.5468 94.3138 13.486 94.0259 13.3637C93.7379 13.2413 93.4786 13.0601 93.2648 12.8317C93.051 12.6032 92.8873 12.3326 92.7842 12.0372C92.681 11.7418 92.6408 11.4281 92.6661 11.1162C92.6387 10.7941 92.6796 10.4698 92.786 10.1645C92.8923 9.85928 93.0619 9.57987 93.2835 9.34454C93.5052 9.10921 93.774 8.92325 94.0723 8.79879C94.3707 8.67432 94.6919 8.61415 95.0151 8.6222C95.328 8.61473 95.639 8.6733 95.9277 8.79409C96.2165 8.91489 96.4765 9.0952 96.6909 9.32326C96.9053 9.55132 97.0692 9.82201 97.1719 10.1177C97.2746 10.4133 97.3139 10.7273 97.2871 11.0392C97.3142 11.3615 97.2733 11.6859 97.167 11.9914C97.0608 12.297 96.8915 12.5767 96.6703 12.8127C96.449 13.0487 96.1807 13.2355 95.8827 13.3612C95.5846 13.4868 95.2635 13.5485 94.9401 13.5422H94.9371ZM94.9761 9.3882C94.2201 9.3882 93.7351 10.0962 93.7351 11.0882C93.7351 12.0592 94.2351 12.7672 94.9661 12.7672C95.6971 12.7672 96.1981 12.0102 96.1981 11.0672C96.2011 10.1052 95.7151 9.3872 94.9761 9.3872V9.3882ZM102.925 13.4352H101.876V10.7292C101.876 9.8952 101.556 9.4772 100.925 9.4772C100.78 9.48239 100.637 9.51662 100.505 9.57787C100.374 9.63911 100.255 9.72613 100.158 9.83378C100.06 9.94144 99.9853 10.0676 99.9372 10.2047C99.8891 10.3418 99.869 10.4872 99.8781 10.6322V13.4372H98.8291V10.0662C98.8291 9.6492 98.8191 9.2022 98.7901 8.7172H99.7121L99.7611 9.4452H99.7901C99.9439 9.18762 100.163 8.97551 100.426 8.83055C100.689 8.6856 100.985 8.61301 101.285 8.6202C102.275 8.6202 102.927 9.3772 102.927 10.6092L102.925 13.4352ZM109.979 9.5052H108.826V11.7952C108.826 12.3782 109.026 12.6692 109.436 12.6692C109.592 12.6705 109.748 12.6541 109.901 12.6202L109.93 13.4202C109.668 13.5072 109.393 13.5468 109.117 13.5372C108.291 13.5372 107.797 13.0812 107.797 11.8872V9.5042H107.109V8.7182H107.797V7.8542L108.826 7.5432V8.7172H109.979V9.5052ZM115.529 13.4352H114.482V10.7462C114.482 9.9022 114.163 9.4752 113.531 9.4752C113.387 9.47171 113.243 9.49873 113.11 9.5545C112.976 9.61026 112.856 9.69351 112.757 9.79882C112.658 9.90414 112.583 10.0291 112.535 10.1657C112.488 10.3022 112.47 10.4472 112.482 10.5912V13.4342H111.435V6.5542H112.482V9.3872H112.503C112.65 9.14448 112.859 8.94539 113.108 8.81054C113.358 8.67569 113.639 8.60997 113.922 8.6202C114.922 8.6202 115.531 9.3962 115.531 10.6292L115.529 13.4352ZM121.215 11.3292H118.069C118.062 11.5226 118.096 11.7154 118.169 11.8945C118.242 12.0737 118.353 12.235 118.494 12.3677C118.635 12.5004 118.803 12.6013 118.986 12.6636C119.169 12.726 119.364 12.7484 119.556 12.7292C119.99 12.7333 120.421 12.6577 120.827 12.5062L120.99 13.2342C120.488 13.4391 119.949 13.5382 119.407 13.5252C119.09 13.5495 118.771 13.5045 118.473 13.3933C118.176 13.282 117.905 13.1072 117.682 12.881C117.458 12.6548 117.287 12.3826 117.179 12.0833C117.071 11.7841 117.03 11.465 117.058 11.1482C117.026 10.8329 117.059 10.5143 117.156 10.2125C117.253 9.91071 117.411 9.63214 117.62 9.39429C117.83 9.15645 118.086 8.96447 118.373 8.8304C118.66 8.69633 118.972 8.62307 119.289 8.6152C119.571 8.61545 119.85 8.67591 120.107 8.79256C120.363 8.90921 120.592 9.07936 120.778 9.29161C120.964 9.50386 121.102 9.75332 121.184 10.0233C121.265 10.2933 121.288 10.5776 121.251 10.8572C121.258 11.0154 121.246 11.1738 121.215 11.3292ZM120.254 10.5822C120.254 9.8542 119.887 9.3402 119.217 9.3402C118.905 9.36465 118.613 9.50619 118.401 9.73649C118.188 9.96679 118.07 10.2688 118.071 10.5822H120.254Z" fill="#303037"/>
</svg>
