<svg width="50" height="19" viewBox="0 0 50 19" fill="none" xmlns="http://www.w3.org/2000/svg">
    <path d="M9.67424 9.84525V9.89998L9.66217 15.3429C9.6018 15.4218 9.53865 15.4876 9.46899 15.5628C8.55417 14.8085 7.56506 14.1814 6.76912 13.8307C6.23973 13.5979 5.66669 13.301 5.07972 12.9559C4.98685 12.9002 4.89119 12.8436 4.79739 12.7852C4.77695 12.7722 4.75559 12.7601 4.73516 12.7471C4.73516 12.7471 4.73516 12.7471 4.73423 12.7471C3.14978 11.7675 1.51983 10.4575 0.457342 9.10678C0.447126 9.09287 0.435052 9.07988 0.424836 9.06596C0.397902 9.02978 0.369111 8.99453 0.342177 8.95835C0.338462 8.95278 0.333818 8.94721 0.330103 8.94165C0.32546 8.93608 0.321745 8.92959 0.316172 8.92402C0.311529 8.91289 0.305956 8.90083 0.301312 8.88877C0.301312 8.88877 0.301312 8.88784 0.300384 8.88691C0.186147 8.60581 0.103489 8.08165 0.0561226 7.46287C0.0375476 7.22166 0.0245452 6.96561 0.0171152 6.70399C0.00597019 6.32641 0.00689894 5.93677 0.0199014 5.56104C0.0217589 5.52301 0.0226877 5.48497 0.0245452 5.44786C0.0468351 4.88288 0.0969876 4.35594 0.174074 3.95887C0.178717 3.95331 0.183361 3.94867 0.188005 3.9431C0.30317 3.81044 0.433195 3.68149 0.573436 3.55624C0.722036 3.42358 0.882709 3.29648 1.05546 3.1731C1.20406 3.33081 1.36844 3.49409 1.54305 3.66108C2.37242 4.45056 3.47206 5.3319 4.62928 6.20395C4.65622 6.22436 4.68315 6.24477 4.71008 6.26425C4.80296 6.33476 4.89676 6.40434 4.99056 6.47485C5.04629 6.51566 5.10294 6.55834 5.15774 6.59916C6.79884 7.81447 8.49381 8.98525 9.67424 9.84525Z" fill="#1C935F"/>
    <path d="M9.67338 15.3486C9.61023 15.4275 9.54336 15.5036 9.47092 15.5787C7.34501 17.8154 1.35365 18.8545 0.956148 18.8127C0.545641 18.7701 -0.376606 14.0647 0.271661 13.7223C2.00471 13.4524 3.42105 13.1305 4.5792 12.7891C5.58132 12.494 6.38933 12.1851 7.04131 11.8827C9.2313 10.8659 9.64181 9.92334 9.67153 9.84912C9.67245 9.84634 9.67338 9.84448 9.67338 9.84448C9.67431 9.84727 9.67617 9.85005 9.6771 9.85283C10.0839 10.6572 10.1266 14.4107 9.67338 15.3486Z" fill="url(#paint0_linear)"/>
    <path d="M9.8088 5.09154C8.17978 5.34388 6.82845 5.63982 5.70745 5.95525C5.4121 6.03874 5.13069 6.12224 4.866 6.20851C4.80749 6.22707 4.75084 6.24562 4.69418 6.26418C4.02827 6.48405 3.46359 6.70855 2.9825 6.93121C1.75469 7.49619 1.08135 8.03797 0.721924 8.42112C0.466518 8.69294 0.367142 8.88312 0.33835 8.94621C0.336493 8.95085 0.334635 8.95549 0.332778 8.95827C0.329063 8.9527 0.324419 8.94714 0.320704 8.94157C0.31606 8.936 0.312345 8.92951 0.306773 8.92394C0.302129 8.91281 0.296557 8.90075 0.291913 8.88869C0.291913 8.88869 0.291913 8.88776 0.290984 8.88684C0.176748 8.60574 0.0940894 8.08158 0.0467232 7.46279C0.0281482 7.22158 0.0151457 6.96553 0.00771576 6.70392C-0.00342923 6.32633 -0.00250048 5.93669 0.010502 5.56097C0.0123595 5.52293 0.0132883 5.48489 0.0151457 5.44778C0.0392932 4.88466 0.0913031 4.35957 0.173962 3.96344C0.175819 3.95601 0.176748 3.94952 0.178606 3.94303C0.220399 3.74728 0.270552 3.58493 0.328134 3.46618C0.600257 3.12849 0.963398 2.81585 1.38505 2.52918C3.95861 0.780435 8.76303 -0.035029 9.11874 0.00115204C9.53203 0.0447548 10.4617 4.74921 9.8088 5.09154Z" fill="url(#paint1_linear)"/>
    <path d="M13 13.9388L14.7988 11.9951C14.9615 12.1699 15.1483 12.3477 15.3592 12.5285C15.5761 12.7093 15.8172 12.8751 16.0823 13.0257C16.3475 13.1704 16.6367 13.2879 16.9501 13.3783C17.2634 13.4687 17.6009 13.5139 17.9625 13.5139C18.1734 13.5139 18.3813 13.4838 18.5862 13.4235C18.7971 13.3632 18.9899 13.2758 19.1647 13.1613C19.3394 13.0408 19.478 12.8992 19.5805 12.7364C19.6829 12.5677 19.7341 12.3778 19.7341 12.1669C19.7341 11.7089 19.5112 11.3533 19.0652 11.1001C18.6253 10.847 17.9233 10.5969 16.9591 10.3498C16.4891 10.2413 16.0522 10.0816 15.6485 9.87065C15.2507 9.65971 14.9072 9.40658 14.618 9.11127C14.3287 8.81595 14.1028 8.47844 13.9401 8.09875C13.7834 7.71303 13.705 7.28512 13.705 6.81502C13.705 6.29671 13.7954 5.80853 13.9762 5.35049C14.163 4.89244 14.4432 4.48864 14.8169 4.13908C15.1965 3.78952 15.6665 3.51229 16.227 3.30737C16.7874 3.10246 17.4502 3 18.2156 3C18.8423 3 19.3967 3.0663 19.8787 3.19889C20.3669 3.32545 20.7796 3.47914 21.1171 3.65994C21.4546 3.84075 21.7318 4.02758 21.9487 4.22045C22.1656 4.40728 22.3283 4.55494 22.4368 4.66342L20.8279 6.44437C20.6893 6.33588 20.5296 6.21836 20.3488 6.09179C20.174 5.9592 19.9752 5.83867 19.7522 5.73018C19.5353 5.61567 19.2912 5.52225 19.02 5.44993C18.7549 5.37158 18.4747 5.33241 18.1794 5.33241C17.9805 5.33241 17.7847 5.36555 17.5919 5.43185C17.405 5.49212 17.2333 5.57348 17.0766 5.67594C16.926 5.7784 16.8024 5.90195 16.706 6.04659C16.6156 6.19124 16.5704 6.34191 16.5704 6.49861C16.5704 6.92049 16.7934 7.26101 17.2393 7.52017C17.6853 7.77932 18.2969 7.99629 19.0743 8.17107C19.5322 8.27956 19.9782 8.43023 20.4121 8.62309C20.852 8.80992 21.2436 9.06004 21.5871 9.37344C21.9306 9.68081 22.2078 10.0605 22.4187 10.5125C22.6296 10.9585 22.7351 11.5039 22.7351 12.1488C22.7351 12.7033 22.6116 13.2156 22.3645 13.6857C22.1174 14.1558 21.78 14.5626 21.3521 14.9061C20.9303 15.2497 20.4301 15.5178 19.8516 15.7107C19.2792 15.9036 18.6615 16 17.9986 16C17.384 16 16.8205 15.9397 16.3083 15.8192C15.8021 15.7047 15.3441 15.551 14.9344 15.3581C14.5306 15.1653 14.166 14.9453 13.8406 14.6982C13.5152 14.4511 13.235 14.198 13 13.9388Z" fill="#333333"/>
    <path d="M23.5496 13.2608C23.5496 12.7545 23.6521 12.3055 23.8569 11.9138C24.0618 11.516 24.342 11.1845 24.6976 10.9193C25.0591 10.6541 25.481 10.4553 25.9631 10.3227C26.4512 10.1841 26.9815 10.1147 27.5539 10.1147C27.8613 10.1147 28.1716 10.1208 28.485 10.1328C28.7983 10.1449 29.0062 10.163 29.1087 10.1871V9.99722C29.1087 9.77422 29.0605 9.58739 28.964 9.43672C28.8736 9.28002 28.7501 9.15044 28.5934 9.04798C28.4428 8.9395 28.268 8.86416 28.0692 8.82198C27.8703 8.77979 27.6594 8.75869 27.4364 8.75869C26.8459 8.75869 26.3548 8.83403 25.9631 8.9847C25.5774 9.12935 25.249 9.29509 24.9778 9.48192L23.8841 7.85466C24.0709 7.71604 24.2818 7.58044 24.5168 7.44784C24.7518 7.30923 25.029 7.18567 25.3484 7.07719C25.6678 6.96268 26.0263 6.87228 26.4241 6.80598C26.8278 6.73968 27.2888 6.70654 27.807 6.70654C29.1267 6.70654 30.0999 7.06212 30.7267 7.7733C31.3594 8.47844 31.6758 9.43069 31.6758 10.63V15.6836H29.181L29.1087 14.87C28.8134 15.2135 28.4398 15.4787 27.9878 15.6655C27.5359 15.8523 27.0327 15.9458 26.4783 15.9458C26.171 15.9458 25.8455 15.9006 25.5021 15.8102C25.1646 15.7258 24.8512 15.5811 24.562 15.3762C24.2727 15.1713 24.0317 14.8971 23.8389 14.5535C23.646 14.21 23.5496 13.7791 23.5496 13.2608ZM26.1258 12.9805C26.1258 13.6977 26.5566 14.0563 27.4184 14.0563C27.6293 14.0563 27.8372 14.0232 28.042 13.9569C28.2469 13.8846 28.4247 13.7881 28.5754 13.6676C28.732 13.541 28.8586 13.3873 28.955 13.2065C29.0574 13.0197 29.1087 12.8027 29.1087 12.5556V11.8505C29.0484 11.8384 28.9309 11.8234 28.7561 11.8053C28.5814 11.7872 28.3825 11.7782 28.1596 11.7782C27.4184 11.7782 26.8941 11.8836 26.5868 12.0946C26.2794 12.3055 26.1258 12.6008 26.1258 12.9805Z" fill="#333333"/>
    <path d="M32.653 14.6982L33.9727 12.9986C34.2559 13.2578 34.6295 13.4747 35.0935 13.6495C35.5575 13.8183 36.0035 13.9026 36.4313 13.9026C36.829 13.9026 37.1575 13.8544 37.4166 13.758C37.6757 13.6616 37.8053 13.4717 37.8053 13.1885C37.8053 13.08 37.7751 12.9775 37.7149 12.8811C37.6606 12.7847 37.5582 12.6973 37.4075 12.6189C37.2629 12.5406 37.058 12.4592 36.7929 12.3748C36.5277 12.2844 36.1933 12.185 35.7896 12.0765C35.4581 11.9921 35.1267 11.8776 34.7952 11.733C34.4698 11.5883 34.1806 11.4135 33.9275 11.2086C33.6744 10.9977 33.4695 10.7446 33.3128 10.4492C33.1622 10.1479 33.0869 9.80134 33.0869 9.4096C33.0869 8.99977 33.1773 8.63213 33.358 8.30668C33.5448 7.98122 33.801 7.69796 34.1264 7.45688C34.4578 7.21581 34.8465 7.03199 35.2924 6.90542C35.7444 6.77283 36.2295 6.70654 36.7477 6.70654C37.4889 6.70654 38.1367 6.79091 38.6911 6.95967C39.2455 7.12239 39.7577 7.36347 40.2277 7.68289L39.0979 9.44576C38.8146 9.25892 38.4892 9.09319 38.1216 8.94854C37.7601 8.79787 37.3503 8.72253 36.8923 8.72253C36.4825 8.72253 36.1843 8.7828 35.9974 8.90334C35.8167 9.01785 35.7263 9.17455 35.7263 9.37344C35.7263 9.6567 35.9161 9.86764 36.2957 10.0063C36.6814 10.1389 37.2027 10.2895 37.8595 10.4583C38.7453 10.7054 39.3901 11.0459 39.7939 11.4798C40.1976 11.9138 40.3995 12.4893 40.3995 13.2065C40.3995 13.6887 40.291 14.1015 40.0741 14.4451C39.8571 14.7886 39.5649 15.0749 39.1973 15.3039C38.8357 15.5329 38.4229 15.7017 37.9589 15.8102C37.4949 15.9247 37.0249 15.9819 36.5488 15.9819C35.7715 15.9819 35.0363 15.8764 34.3433 15.6655C33.6503 15.4546 33.0869 15.1321 32.653 14.6982Z" fill="#333333"/>
    <path d="M41.5033 15.6836V3.33449H44.1427V7.83658C44.4259 7.5051 44.8025 7.24896 45.2726 7.06815C45.7426 6.88734 46.2187 6.79694 46.7007 6.79694C47.7011 6.79694 48.4995 7.09527 49.0961 7.69193C49.6987 8.28257 50 9.15647 50 10.3136V15.6836H47.3515V10.7204C47.3515 10.2142 47.222 9.81943 46.9629 9.53616C46.7037 9.2529 46.3573 9.11127 45.9234 9.11127C45.6401 9.11127 45.3871 9.16551 45.1641 9.27399C44.9411 9.37645 44.7543 9.51507 44.6037 9.68985C44.459 9.8586 44.3476 10.0575 44.2692 10.2865C44.1969 10.5155 44.1608 10.7596 44.1608 11.0188V15.6836H41.5033Z" fill="#333333"/>
    <defs>
        <linearGradient id="paint0_linear" x1="5.02264" y1="9.84448" x2="5.35211" y2="18.1485" gradientUnits="userSpaceOnUse">
            <stop stop-color="#30C684"/>
            <stop offset="1" stop-color="#23A76D"/>
        </linearGradient>
        <linearGradient id="paint1_linear" x1="5.01729" y1="-6.1794e-08" x2="5.34319" y2="8.29394" gradientUnits="userSpaceOnUse">
            <stop stop-color="#30C684"/>
            <stop offset="1" stop-color="#23A76D"/>
        </linearGradient>
    </defs>
</svg>
