<svg width="249" height="502" viewBox="0 0 249 502" fill="none" xmlns="http://www.w3.org/2000/svg">
<g clip-path="url(#clip0)">
<g filter="url(#filter0_ddi)">
<path fill-rule="evenodd" clip-rule="evenodd" d="M0 36C0 16.1177 16.1178 0 36 0H213C232.882 0 249 16.1177 249 36V467C249 486.882 232.882 503 213 503H36C16.1178 503 0 486.882 0 467V36Z" fill="url(#paint0_linear)"/>
</g>
<path fill-rule="evenodd" clip-rule="evenodd" d="M16 270.058V136.429V464.693C16 476.787 25.9727 486.771 38.0779 486.771H211.796C223.902 486.771 233.874 476.787 233.874 464.693V265.41V37.0779C233.874 24.9838 223.902 15 211.796 15H189.719C187.472 15 185.652 16.8209 185.652 19.067V19.067C185.845 26.8784 179.612 33.1182 171.708 33.011H77.5858C69.5667 33.1182 63.3337 26.8784 63.6419 19.067V19.067C63.6419 16.8209 61.821 15 59.5749 15H57.8319H52.0219H46.7929C46.6277 15 43.8434 15 38.0779 15C25.9727 15 16 24.9838 16 37.0779V139.334" fill="#FBFBFB"/>
<mask id="mask0" mask-type="alpha" maskUnits="userSpaceOnUse" x="16" y="15" width="218" height="472">
<path fill-rule="evenodd" clip-rule="evenodd" d="M16 270.058V136.429V464.693C16 476.787 25.9727 486.771 38.0779 486.771H211.796C223.902 486.771 233.874 476.787 233.874 464.693V265.41V37.0779C233.874 24.9838 223.902 15 211.796 15H189.719C187.472 15 185.652 16.8209 185.652 19.067V19.067C185.845 26.8784 179.612 33.1182 171.708 33.011H77.5858C69.5667 33.1182 63.3337 26.8784 63.6419 19.067V19.067C63.6419 16.8209 61.821 15 59.5749 15H57.8319H52.0219H46.7929C46.6277 15 43.8434 15 38.0779 15C25.9727 15 16 24.9838 16 37.0779V139.334" fill="white"/>
</mask>
<g mask="url(#mask0)">
<path fill-rule="evenodd" clip-rule="evenodd" d="M16 270.058V136.429V464.693C16 476.787 25.9727 486.771 38.0779 486.771H211.796C223.902 486.771 233.874 476.787 233.874 464.693V265.41V37.0779C233.874 24.9838 223.902 15 211.796 15H189.719C187.472 15 185.652 16.8209 185.652 19.067V19.067C185.845 26.8784 179.612 33.1182 171.708 33.011H77.5858C69.5667 33.1182 63.3337 26.8784 63.6419 19.067V19.067C63.6419 16.8209 61.821 15 59.5749 15H57.8319H52.0219H46.7929C46.6277 15 43.8434 15 38.0779 15C25.9727 15 16 24.9838 16 37.0779V139.334" fill="#FBFBFB"/>
<path fill-rule="evenodd" clip-rule="evenodd" d="M233.779 250.894C233.779 322.223 233.777 393.552 233.786 464.881C233.786 469.239 232.715 473.287 230.39 476.962C226.668 482.844 221.314 486.311 214.458 487.439C213.4 487.613 212.312 487.671 211.238 487.672C153.69 487.682 96.1417 487.684 38.5934 487.679C27.5161 487.678 18.0306 479.59 16.285 468.647C16.0791 467.357 16.0207 466.031 16.0201 464.722C16.0063 431.13 16.0092 397.538 16.0092 363.945C16.0092 254.948 16.0116 145.95 16 36.9523C15.9996 32.7765 16.9265 28.8608 19.0662 25.2829C22.6535 19.2851 27.8933 15.601 34.7993 14.3705C35.921 14.1706 37.0696 14.0258 38.2065 14.0211C45.72 13.9901 53.2336 14.0009 60.7473 14.0063C62.6575 14.0077 63.7572 14.9992 63.9561 16.8941C64.033 17.6267 64.0781 18.3655 64.0853 19.102C64.1008 20.669 64.3387 22.1949 64.9597 23.6343C66.9063 28.147 70.2909 30.7945 75.2006 31.3992C76.0661 31.5058 76.9461 31.5336 77.8193 31.5337C109.559 31.5403 141.298 31.5389 173.037 31.5399C175.326 31.5399 177.537 31.1625 179.546 30.0177C183.71 27.6441 185.916 24.0562 186.103 19.248C186.137 18.3766 186.16 17.5027 186.248 16.636C186.395 15.1802 187.526 14.1218 188.996 14.0109C189.231 13.9932 189.468 14.004 189.704 14.0039C196.813 14.0038 203.922 13.9977 211.031 14.0054C221.795 14.0172 230.921 21.2993 233.257 31.7967C233.576 33.232 233.627 34.7291 233.77 36.2007C233.822 36.7348 233.779 37.2781 233.779 37.8172C233.779 108.843 233.779 179.869 233.779 250.894" fill="#F7F7FA"/>
<mask id="mask1" mask-type="alpha" maskUnits="userSpaceOnUse" x="16" y="14" width="218" height="474">
<path fill-rule="evenodd" clip-rule="evenodd" d="M233.779 250.894C233.779 322.223 233.777 393.552 233.786 464.881C233.786 469.239 232.715 473.287 230.39 476.962C226.668 482.844 221.314 486.311 214.458 487.439C213.4 487.613 212.312 487.671 211.238 487.672C153.69 487.682 96.1417 487.684 38.5934 487.679C27.5161 487.678 18.0306 479.59 16.285 468.647C16.0791 467.357 16.0207 466.031 16.0201 464.722C16.0063 431.13 16.0092 397.538 16.0092 363.945C16.0092 254.948 16.0116 145.95 16 36.9523C15.9996 32.7765 16.9265 28.8608 19.0662 25.2829C22.6535 19.2851 27.8933 15.601 34.7993 14.3705C35.921 14.1706 37.0696 14.0258 38.2065 14.0211C45.72 13.9901 53.2336 14.0009 60.7473 14.0063C62.6575 14.0077 63.7572 14.9992 63.9561 16.8941C64.033 17.6267 64.0781 18.3655 64.0853 19.102C64.1008 20.669 64.3387 22.1949 64.9597 23.6343C66.9063 28.147 70.2909 30.7945 75.2006 31.3992C76.0661 31.5058 76.9461 31.5336 77.8193 31.5337C109.559 31.5403 141.298 31.5389 173.037 31.5399C175.326 31.5399 177.537 31.1625 179.546 30.0177C183.71 27.6441 185.916 24.0562 186.103 19.248C186.137 18.3766 186.16 17.5027 186.248 16.636C186.395 15.1802 187.526 14.1218 188.996 14.0109C189.231 13.9932 189.468 14.004 189.704 14.0039C196.813 14.0038 203.922 13.9977 211.031 14.0054C221.795 14.0172 230.921 21.2993 233.257 31.7967C233.576 33.232 233.627 34.7291 233.77 36.2007C233.822 36.7348 233.779 37.2781 233.779 37.8172C233.779 108.843 233.779 179.869 233.779 250.894" fill="white"/>
</mask>
<g mask="url(#mask1)">
<rect x="16" y="14" width="218" height="51" fill="#FAF8F8"/>
<path opacity="0.35" d="M216 24.5H222C222.321 24.5 222.446 24.5006 222.546 24.5104C223.574 24.6117 224.388 25.4256 224.49 26.4543C224.499 26.5541 224.5 26.6785 224.5 27C224.5 27.3215 224.499 27.4459 224.49 27.5457C224.388 28.5744 223.574 29.3883 222.546 29.4896C222.446 29.4994 222.321 29.5 222 29.5H216C215.679 29.5 215.554 29.4994 215.454 29.4896C214.426 29.3883 213.612 28.5744 213.51 27.5457C213.501 27.4459 213.5 27.3215 213.5 27C213.5 26.6785 213.501 26.5541 213.51 26.4543C213.612 25.4256 214.426 24.6117 215.454 24.5104C215.554 24.5006 215.679 24.5 216 24.5Z" stroke="black"/>
<path opacity="0.4" d="M226 26V28C226.606 27.8306 227 27.4366 227 27C227 26.5634 226.606 26.1694 226 26" fill="black"/>
<path d="M214 27C214 26.3787 214 26.0681 214.101 25.8231C214.237 25.4964 214.496 25.2368 214.823 25.1015C215.068 25 215.379 25 216 25H222C222.621 25 222.932 25 223.177 25.1015C223.504 25.2368 223.763 25.4964 223.899 25.8231C224 26.0681 224 26.3787 224 27V27C224 27.6213 224 27.9319 223.899 28.1769C223.763 28.5036 223.504 28.7632 223.177 28.8985C222.932 29 222.621 29 222 29H216C215.379 29 215.068 29 214.823 28.8985C214.496 28.7632 214.237 28.5036 214.101 28.1769C214 27.9319 214 27.6213 214 27V27Z" fill="black"/>
<path fill-rule="evenodd" clip-rule="evenodd" d="M204.962 25.3988C206.25 25.3989 207.489 25.8939 208.423 26.7814C208.493 26.85 208.605 26.8491 208.674 26.7795L209.346 26.1013C209.382 26.066 209.401 26.0182 209.401 25.9684C209.401 25.9187 209.38 25.8711 209.345 25.8362C206.895 23.4879 203.029 23.4879 200.578 25.8362C200.543 25.8711 200.523 25.9186 200.522 25.9684C200.522 26.0181 200.542 26.066 200.577 26.1013L201.249 26.7795C201.318 26.8492 201.431 26.8501 201.501 26.7814C202.435 25.8938 203.674 25.3988 204.962 25.3988ZM204.963 27.6053C205.67 27.6052 206.353 27.8683 206.877 28.3434C206.948 28.4108 207.06 28.4094 207.129 28.3401L207.801 27.6619C207.836 27.6263 207.856 27.578 207.855 27.5279C207.855 27.4777 207.834 27.4299 207.798 27.395C206.2 25.9089 203.726 25.9089 202.129 27.395C202.092 27.4299 202.072 27.4778 202.071 27.5279C202.071 27.5781 202.091 27.6263 202.126 27.6619L202.797 28.3401C202.866 28.4094 202.978 28.4108 203.049 28.3434C203.573 27.8686 204.255 27.6056 204.963 27.6053ZM206.307 29.09C206.308 29.1403 206.288 29.1888 206.252 29.224L205.091 30.3958C205.057 30.4302 205.011 30.4496 204.962 30.4496C204.914 30.4496 204.867 30.4302 204.833 30.3958L203.672 29.224C203.636 29.1888 203.616 29.1403 203.617 29.09C203.618 29.0397 203.64 28.9921 203.678 28.9583C204.419 28.3312 205.505 28.3312 206.247 28.9583C206.284 28.9921 206.306 29.0397 206.307 29.09Z" fill="black"/>
<path fill-rule="evenodd" clip-rule="evenodd" d="M197.02 24.2703H196.438C196.117 24.2703 195.857 24.5305 195.857 24.8516V29.8898C195.857 30.2109 196.117 30.4712 196.438 30.4712H197.02C197.341 30.4712 197.601 30.2109 197.601 29.8898V24.8516C197.601 24.5305 197.341 24.2703 197.02 24.2703ZM193.725 25.6267H194.307C194.628 25.6267 194.888 25.887 194.888 26.208V29.8898C194.888 30.2109 194.628 30.4711 194.307 30.4711H193.725C193.404 30.4711 193.144 30.2109 193.144 29.8898V26.208C193.144 25.887 193.404 25.6267 193.725 25.6267ZM191.594 26.9831H191.012C190.691 26.9831 190.431 27.2434 190.431 27.5645V29.8898C190.431 30.2109 190.691 30.4711 191.012 30.4711H191.594C191.915 30.4711 192.175 30.2109 192.175 29.8898V27.5645C192.175 27.2434 191.915 26.9831 191.594 26.9831ZM188.881 28.1461H188.3C187.979 28.1461 187.718 28.4063 187.718 28.7274V29.8901C187.718 30.2111 187.979 30.4714 188.3 30.4714H188.881C189.202 30.4714 189.462 30.2111 189.462 29.8901V28.7274C189.462 28.4063 189.202 28.1461 188.881 28.1461Z" fill="black"/>
<path d="M38.3068 30C39.9102 30 40.8626 28.8626 40.8626 26.9366C40.8626 26.2114 40.7097 25.6011 40.417 25.1295C39.9932 24.3963 39.2636 24 38.3417 24C36.9699 24 36 24.8362 36 26.0092C36 27.111 36.8738 27.9115 38.0752 27.9115C38.8136 27.9115 39.4121 27.5984 39.7092 27.0555H39.7223C39.7223 27.0555 39.7398 27.0555 39.7442 27.0555C39.7529 27.0555 39.7835 27.0555 39.7835 27.0555C39.7835 28.3633 39.2374 29.144 38.3155 29.144C37.7738 29.144 37.3544 28.8745 37.2102 28.4425H36.0874C36.2752 29.3818 37.1534 30 38.3068 30ZM38.3461 27.0991C37.6209 27.0991 37.1053 26.6314 37.1053 25.9775C37.1053 25.3395 37.6471 24.852 38.3505 24.852C39.0539 24.852 39.5956 25.3474 39.5956 25.9934C39.5956 26.6314 39.067 27.0991 38.3461 27.0991Z" fill="black"/>
<path d="M42.6628 29.255C43.0778 29.255 43.3618 28.9855 43.3618 28.6288C43.3618 28.2682 43.0778 28.0026 42.6628 28.0026C42.2521 28.0026 41.9638 28.2682 41.9638 28.6288C41.9638 28.9855 42.2521 29.255 42.6628 29.255ZM42.6628 26.2827C43.0778 26.2827 43.3618 26.0172 43.3618 25.6605C43.3618 25.2999 43.0778 25.0343 42.6628 25.0343C42.2521 25.0343 41.9638 25.2999 41.9638 25.6605C41.9638 26.0172 42.2521 26.2827 42.6628 26.2827Z" fill="black"/>
<path d="M47.5387 29.8613H48.6178V28.7952H49.4697V27.9313H48.6178V24.1427H47.0275C45.9134 25.6645 45.0265 26.9366 44.4586 27.8838V28.7952H47.5387V29.8613ZM45.5028 27.8956C46.2367 26.7226 46.8921 25.7834 47.495 24.9749H47.5561V27.9551H45.5028V27.8956Z" fill="black"/>
<path d="M51.8728 29.8613H53V24.1427H51.8772L50.2301 25.1889V26.1717L51.7985 25.1731H51.8728V29.8613Z" fill="black"/>
<path d="M85.2853 48.4899C85.0646 47.4073 84.1539 46 81.7807 46C79.9317 46 78.3725 47.2991 78.3725 49.0041C78.3725 50.452 79.3798 51.4398 80.939 51.751L82.305 52.0217C83.0639 52.1705 83.4916 52.6035 83.4916 53.1583C83.4916 53.8349 82.9259 54.3356 81.9048 54.3356C80.525 54.3356 79.8489 53.4831 79.7661 52.5359L78 52.9959C78.1518 54.3627 79.297 56 81.891 56C84.1677 56 85.4233 54.5115 85.4233 53.0365C85.4233 51.6834 84.4713 50.5467 82.6913 50.2084L81.3253 49.9513C80.6078 49.816 80.2629 49.3965 80.2629 48.8687C80.2629 48.2327 80.87 47.6509 81.7945 47.6509C83.0363 47.6509 83.4778 48.4763 83.5744 49.0041L85.2853 48.4899Z" fill="#30C684"/>
<path d="M86.4521 53.9838C86.4521 55.0257 87.3352 55.9865 88.784 55.9865C89.7913 55.9865 90.4398 55.5264 90.7847 54.9986C90.7847 55.2558 90.8123 55.6211 90.8537 55.797H92.5371C92.4957 55.567 92.4543 55.0934 92.4543 54.7415V51.4668C92.4543 50.1272 91.654 48.9364 89.5015 48.9364C87.6802 48.9364 86.7005 50.0866 86.5901 51.1286L88.2183 51.4668C88.2735 50.885 88.715 50.3843 89.5153 50.3843C90.288 50.3843 90.6605 50.7767 90.6605 51.2503C90.6605 51.4804 90.5363 51.6698 90.15 51.724L88.4804 51.9675C87.349 52.1299 86.4521 52.793 86.4521 53.9838ZM89.1703 54.6468C88.577 54.6468 88.2873 54.2679 88.2873 53.8755C88.2873 53.3613 88.6598 53.1042 89.129 53.0365L90.6605 52.8065V53.1042C90.6605 54.2815 89.943 54.6468 89.1703 54.6468Z" fill="#30C684"/>
<path d="M93.7245 53.9432C93.8073 54.7009 94.511 56 96.5531 56C98.3331 56 99.1886 54.8904 99.1886 53.8078C99.1886 52.8336 98.5125 52.0352 97.174 51.7645L96.2082 51.5616C95.8356 51.4939 95.5873 51.2909 95.5873 50.9662C95.5873 50.5873 95.9736 50.3031 96.4566 50.3031C97.2292 50.3031 97.519 50.8038 97.5742 51.1962L99.1058 50.8579C99.023 50.1407 98.3745 48.9364 96.4428 48.9364C94.9802 48.9364 93.9039 49.9242 93.9039 51.115C93.9039 52.0487 94.4972 52.82 95.808 53.1042L96.7049 53.3072C97.2292 53.4154 97.4362 53.659 97.4362 53.9567C97.4362 54.3085 97.1465 54.6198 96.5393 54.6198C95.7391 54.6198 95.3389 54.1326 95.2975 53.6049L93.7245 53.9432Z" fill="#30C684"/>
<path d="M102.499 51.8863C102.541 51.1556 102.996 50.5873 103.769 50.5873C104.652 50.5873 105.024 51.1691 105.024 51.9134V55.797H106.859V51.6022C106.859 50.1407 106.059 48.9635 104.334 48.9635C103.686 48.9635 102.941 49.18 102.499 49.6942V46H100.664V55.797H102.499V51.8863Z" fill="#30C684"/>
<path d="M123.183 55.797V46.203H120.589L117.719 53.1313L114.78 46.203H112.269V55.797H114.09V49.1258L116.905 55.797H118.492L121.307 49.0717V55.797H123.183Z" fill="#30C684"/>
<path d="M126.58 51.7104C126.622 51.1015 127.146 50.3978 128.098 50.3978C129.147 50.3978 129.588 51.0474 129.616 51.7104H126.58ZM129.795 53.4425C129.574 54.0379 129.105 54.4574 128.25 54.4574C127.339 54.4574 126.58 53.8214 126.539 52.9418H131.396C131.396 52.9148 131.423 52.6441 131.423 52.387C131.423 50.249 130.168 48.9364 128.07 48.9364C126.332 48.9364 124.731 50.3166 124.731 52.4411C124.731 54.6874 126.373 56 128.236 56C129.905 56 130.982 55.0392 131.327 53.889L129.795 53.4425Z" fill="#30C684"/>
<path d="M137.008 49.1123C136.87 49.0988 136.732 49.0853 136.58 49.0853C136.001 49.0853 135.062 49.2476 134.648 50.1272V49.1394H132.868V55.797H134.704V52.7524C134.704 51.318 135.518 50.8714 136.456 50.8714C136.621 50.8714 136.801 50.885 137.008 50.9256V49.1123Z" fill="#30C684"/>
<path d="M141.281 50.6008C142.191 50.6008 142.619 51.1691 142.785 51.724L144.427 51.1827C144.137 50.0595 143.088 48.9364 141.239 48.9364C139.266 48.9364 137.721 50.4114 137.721 52.4682C137.721 54.5115 139.294 56 141.294 56C143.102 56 144.164 54.8633 144.468 53.7537L142.854 53.226C142.702 53.7402 142.233 54.3491 141.294 54.3491C140.356 54.3491 139.556 53.6725 139.556 52.4682C139.556 51.2639 140.342 50.6008 141.281 50.6008Z" fill="#30C684"/>
<path d="M147.653 51.8863C147.694 51.1556 148.149 50.5873 148.922 50.5873C149.805 50.5873 150.178 51.1691 150.178 51.9134V55.797H152.013V51.6022C152.013 50.1407 151.213 48.9635 149.488 48.9635C148.839 48.9635 148.094 49.18 147.653 49.6942V46H145.818V55.797H147.653V51.8863Z" fill="#30C684"/>
<path d="M153.461 53.9838C153.461 55.0257 154.344 55.9865 155.793 55.9865C156.8 55.9865 157.449 55.5264 157.794 54.9986C157.794 55.2558 157.822 55.6211 157.863 55.797H159.546C159.505 55.567 159.464 55.0934 159.464 54.7415V51.4668C159.464 50.1272 158.663 48.9364 156.511 48.9364C154.689 48.9364 153.71 50.0866 153.599 51.1286L155.228 51.4668C155.283 50.885 155.724 50.3843 156.525 50.3843C157.297 50.3843 157.67 50.7767 157.67 51.2503C157.67 51.4804 157.546 51.6698 157.159 51.724L155.49 51.9675C154.358 52.1299 153.461 52.793 153.461 53.9838ZM156.18 54.6468C155.586 54.6468 155.297 54.2679 155.297 53.8755C155.297 53.3613 155.669 53.1042 156.138 53.0365L157.67 52.8065V53.1042C157.67 54.2815 156.952 54.6468 156.18 54.6468Z" fill="#30C684"/>
<path d="M163.148 51.9675C163.148 51.1962 163.618 50.5873 164.418 50.5873C165.301 50.5873 165.673 51.1691 165.673 51.9134V55.797H167.509V51.6022C167.509 50.1407 166.736 48.9635 165.053 48.9635C164.321 48.9635 163.507 49.2747 163.093 49.9648V49.1394H161.313V55.797H163.148V51.9675Z" fill="#30C684"/>
<path d="M171.634 47.1502H169.978V48.0839C169.978 48.6793 169.647 49.1394 168.93 49.1394H168.585V50.7361H169.813V53.8349C169.813 55.1204 170.641 55.8917 171.965 55.8917C172.503 55.8917 172.834 55.797 173 55.7294V54.2409C172.903 54.2679 172.655 54.295 172.434 54.295C171.91 54.295 171.634 54.1055 171.634 53.5237V50.7361H173V49.1394H171.634V47.1502Z" fill="#30C684"/>
<path d="M218.889 53.9516V51.8C218.889 49.8698 217.675 48.2438 216.031 47.7548C215.868 47.312 215.47 47 215 47C214.53 47 214.132 47.312 213.969 47.7548C212.325 48.2444 211.111 49.8698 211.111 51.8V53.9516L210.163 54.9758C210.058 55.088 210 55.2404 210 55.4V56.6C210 56.9318 210.248 57.2 210.556 57.2H219.444C219.752 57.2 220 56.9318 220 56.6V55.4C220 55.2404 219.942 55.088 219.837 54.9758L218.889 53.9516ZM218.889 56H211.111V55.6484L212.059 54.6242C212.164 54.512 212.222 54.3596 212.222 54.2V51.8C212.222 50.1458 213.468 48.8 215 48.8C216.532 48.8 217.778 50.1458 217.778 51.8V54.2C217.778 54.3596 217.836 54.512 217.941 54.6242L218.889 55.6484V56ZM215 59C215.728 59 216.337 58.4996 216.566 57.8H213.434C213.663 58.4996 214.272 59 215 59Z" fill="#AFBEC4"/>
<g filter="url(#filter1_d)">
<path fill-rule="evenodd" clip-rule="evenodd" d="M16 488H234V437H16V488Z" fill="white"/>
</g>
<path d="M26.6745 466.673V463.252H27.6145C28.4522 463.252 29.1429 463.828 29.1429 464.972C29.1429 466.111 28.4395 466.673 27.6018 466.673H26.6745ZM27.6209 467.23C28.772 467.23 29.7887 466.456 29.7887 464.972C29.7887 463.482 28.7848 462.696 27.6337 462.696H26.0479V467.23H27.6209Z" fill="#30C684"/>
<path d="M30.3945 466.405C30.3945 466.891 30.7973 467.326 31.424 467.326C31.974 467.326 32.2809 467.031 32.4152 466.814C32.4152 467.038 32.4344 467.153 32.4472 467.23H33.0355C33.0227 467.153 32.9971 466.993 32.9971 466.724V465.183C32.9971 464.582 32.639 464.058 31.7182 464.058C31.0531 464.058 30.5224 464.467 30.4584 465.055L31.0339 465.19C31.0723 464.832 31.3089 464.569 31.731 464.569C32.1978 464.569 32.396 464.819 32.396 465.119C32.396 465.228 32.3448 465.324 32.1594 465.35L31.3281 465.471C30.7973 465.548 30.3945 465.855 30.3945 466.405ZM31.5071 466.82C31.2002 466.82 31.0084 466.603 31.0084 466.373C31.0084 466.098 31.2002 465.951 31.456 465.912L32.396 465.772V465.912C32.396 466.584 31.9995 466.82 31.5071 466.82Z" fill="#30C684"/>
<path d="M33.6458 466.43C33.6969 466.782 34.055 467.326 34.8991 467.326C35.6601 467.326 36.0246 466.808 36.0246 466.373C36.0246 465.919 35.7304 465.58 35.1741 465.458L34.6753 465.35C34.4387 465.298 34.3236 465.164 34.3236 464.979C34.3236 464.768 34.5282 464.569 34.8352 464.569C35.3212 464.569 35.4491 464.921 35.4746 465.081L36.0054 464.883C35.9415 464.608 35.6793 464.058 34.8352 464.058C34.2341 464.058 33.7417 464.505 33.7417 465.03C33.7417 465.465 34.0294 465.791 34.509 465.893L35.0334 466.008C35.2892 466.066 35.4299 466.213 35.4299 466.405C35.4299 466.622 35.2444 466.814 34.9055 466.814C34.4707 466.814 34.2277 466.558 34.1893 466.238L33.6458 466.43Z" fill="#30C684"/>
<path d="M37.426 465.42C37.4388 464.966 37.6817 464.608 38.1422 464.608C38.6793 464.608 38.8584 464.953 38.8584 465.382V467.23H39.4595V465.279C39.4595 464.595 39.095 464.064 38.3596 464.064C38.0079 464.064 37.6498 464.186 37.426 464.512V462.6H36.8249V467.23H37.426V465.42Z" fill="#30C684"/>
<path d="M41.0103 467.23V466.782C41.2022 467.114 41.5539 467.313 42.0079 467.313C42.9223 467.313 43.4403 466.59 43.4403 465.676C43.4403 464.78 42.9607 464.064 42.0271 464.064C41.5155 464.064 41.1574 464.314 41.0103 464.589V462.6H40.4156V467.23H41.0103ZM42.8264 465.676C42.8264 466.341 42.4683 466.776 41.9184 466.776C41.3876 466.776 41.0039 466.341 41.0039 465.676C41.0039 465.011 41.3876 464.595 41.9184 464.595C42.4747 464.595 42.8264 465.011 42.8264 465.676Z" fill="#30C684"/>
<path d="M45.5235 466.788C45.0119 466.788 44.5643 466.405 44.5643 465.688C44.5643 464.979 45.0119 464.595 45.5235 464.595C46.0351 464.595 46.4827 464.979 46.4827 465.688C46.4827 466.405 46.0351 466.788 45.5235 466.788ZM45.5235 464.058C44.6027 464.058 43.9504 464.755 43.9504 465.688C43.9504 466.628 44.6027 467.326 45.5235 467.326C46.4443 467.326 47.0966 466.628 47.0966 465.688C47.0966 464.755 46.4443 464.058 45.5235 464.058Z" fill="#30C684"/>
<path d="M47.6738 466.405C47.6738 466.891 48.0767 467.326 48.7034 467.326C49.2533 467.326 49.5602 467.031 49.6945 466.814C49.6945 467.038 49.7137 467.153 49.7265 467.23H50.3148C50.302 467.153 50.2764 466.993 50.2764 466.724V465.183C50.2764 464.582 49.9183 464.058 48.9975 464.058C48.3325 464.058 47.8017 464.467 47.7378 465.055L48.3133 465.19C48.3516 464.832 48.5883 464.569 49.0103 464.569C49.4771 464.569 49.6753 464.819 49.6753 465.119C49.6753 465.228 49.6242 465.324 49.4387 465.35L48.6074 465.471C48.0767 465.548 47.6738 465.855 47.6738 466.405ZM48.7865 466.82C48.4795 466.82 48.2877 466.603 48.2877 466.373C48.2877 466.098 48.4795 465.951 48.7353 465.912L49.6753 465.772V465.912C49.6753 466.584 49.2789 466.82 48.7865 466.82Z" fill="#30C684"/>
<path d="M52.9202 464.122C52.8883 464.115 52.8051 464.103 52.722 464.103C52.4087 464.103 52.025 464.218 51.8012 464.691V464.154H51.2129V467.23H51.814V465.688C51.814 465.011 52.1529 464.742 52.6581 464.742C52.7412 464.742 52.8307 464.748 52.9202 464.761V464.122Z" fill="#30C684"/>
<path d="M53.8878 465.682C53.8878 465.049 54.2459 464.601 54.7958 464.601C55.3458 464.601 55.6783 465.036 55.6783 465.669C55.6783 466.302 55.3394 466.782 54.7894 466.782C54.2139 466.782 53.8878 466.315 53.8878 465.682ZM55.6847 466.814C55.6847 466.999 55.7039 467.159 55.7167 467.23H56.2986C56.2922 467.178 56.2666 466.955 56.2666 466.66V462.6H55.6719V464.589C55.5696 464.339 55.2754 464.071 54.7319 464.071C53.8622 464.071 53.2739 464.812 53.2739 465.682C53.2739 466.597 53.8302 467.313 54.7319 467.313C55.2115 467.313 55.5376 467.057 55.6847 466.763V466.814Z" fill="#30C684"/>
<path d="M46.0661 448.626C46.0661 448.415 45.9516 448.221 45.7662 448.118L40.5214 445.211C40.3464 445.115 40.1336 445.115 39.9586 445.211L34.7394 448.095C34.5546 448.197 34.44 448.391 34.4395 448.602C34.4389 448.813 34.5528 449.008 34.7377 449.111L39.9825 452.041C40.0708 452.09 40.1679 452.115 40.2656 452.115C40.3632 452.115 40.4603 452.09 40.5481 452.041L45.7673 449.135C45.9522 449.032 46.0661 448.837 46.0661 448.626ZM40.2662 450.867L36.2183 448.606L40.2394 446.384L44.2878 448.628L40.2662 450.867Z" fill="#30C684"/>
<path d="M45.2029 450.444L40.2528 453.194L35.3028 450.444L34.7383 451.46L39.9703 454.367C40.0581 454.416 40.1557 454.44 40.2528 454.44C40.3499 454.44 40.4476 454.416 40.5348 454.367L45.7668 451.46L45.2029 450.444Z" fill="#30C684"/>
<path d="M45.2029 452.769L40.2528 455.519L35.3028 452.769L34.7383 453.785L39.9703 456.692C40.0581 456.741 40.1557 456.765 40.2528 456.765C40.3499 456.765 40.4476 456.741 40.5348 456.692L45.7668 453.785L45.2029 452.769Z" fill="#30C684"/>
<path d="M71.6726 464.812V463.259H72.5806C73.1242 463.259 73.4567 463.565 73.4567 464.045C73.4567 464.512 73.1242 464.812 72.5806 464.812H71.6726ZM72.6957 465.375C73.5334 465.375 74.0962 464.806 74.0962 464.039C74.0962 463.278 73.5334 462.696 72.6957 462.696H71.0459V467.23H71.6726V465.375H72.6957Z" fill="#AFBEC4"/>
<path d="M76.4112 464.122C76.3793 464.115 76.2961 464.103 76.213 464.103C75.8997 464.103 75.516 464.218 75.2922 464.691V464.154H74.7038V467.23H75.3049V465.688C75.3049 465.011 75.6439 464.742 76.149 464.742C76.2322 464.742 76.3217 464.748 76.4112 464.761V464.122Z" fill="#AFBEC4"/>
<path d="M78.338 466.788C77.8264 466.788 77.3788 466.405 77.3788 465.688C77.3788 464.979 77.8264 464.595 78.338 464.595C78.8495 464.595 79.2972 464.979 79.2972 465.688C79.2972 466.405 78.8495 466.788 78.338 466.788ZM78.338 464.058C77.4171 464.058 76.7649 464.755 76.7649 465.688C76.7649 466.628 77.4171 467.326 78.338 467.326C79.2588 467.326 79.9111 466.628 79.9111 465.688C79.9111 464.755 79.2588 464.058 78.338 464.058Z" fill="#AFBEC4"/>
<path d="M81.0382 465.682C81.0382 465.049 81.3963 464.601 81.9463 464.601C82.4962 464.601 82.8287 465.036 82.8287 465.669C82.8287 466.302 82.4898 466.782 81.9399 466.782C81.3643 466.782 81.0382 466.315 81.0382 465.682ZM82.8351 466.814C82.8351 466.999 82.8543 467.159 82.8671 467.23H83.449C83.4426 467.178 83.417 466.955 83.417 466.66V462.6H82.8223V464.589C82.72 464.339 82.4259 464.071 81.8823 464.071C81.0126 464.071 80.4243 464.812 80.4243 465.682C80.4243 466.597 80.9807 467.313 81.8823 467.313C82.3619 467.313 82.688 467.057 82.8351 466.763V466.814Z" fill="#AFBEC4"/>
<path d="M86.4354 466.859C86.4354 466.987 86.4482 467.159 86.4609 467.23H87.0365C87.0237 467.121 87.0045 466.903 87.0045 466.66V464.154H86.4034V466.008C86.4034 466.475 86.1604 466.795 85.6744 466.795C85.1692 466.795 84.9774 466.424 84.9774 466.002V464.154H84.3763V466.091C84.3763 466.788 84.8111 467.326 85.5273 467.326C85.8854 467.326 86.2691 467.178 86.4354 466.859Z" fill="#AFBEC4"/>
<path d="M89.2907 464.614C89.8151 464.614 90.0389 464.966 90.1156 465.266L90.6592 465.036C90.5313 464.569 90.1092 464.058 89.2907 464.058C88.4147 464.058 87.7432 464.729 87.7432 465.688C87.7432 466.622 88.4019 467.326 89.2971 467.326C90.0965 467.326 90.5377 466.808 90.6848 466.366L90.154 466.136C90.0837 466.379 89.8726 466.769 89.2971 466.769C88.7983 466.769 88.3571 466.392 88.3571 465.688C88.3571 464.972 88.8047 464.614 89.2907 464.614Z" fill="#AFBEC4"/>
<path d="M92.1957 463.182H91.6457V463.681C91.6457 463.949 91.505 464.154 91.1725 464.154H91.0063V464.697H91.5946V466.385C91.5946 466.942 91.9271 467.262 92.4514 467.262C92.6561 467.262 92.8095 467.223 92.8607 467.204V466.692C92.8095 466.705 92.7008 466.718 92.6241 466.718C92.3108 466.718 92.1957 466.577 92.1957 466.296V464.697H92.8607V464.154H92.1957V463.182Z" fill="#AFBEC4"/>
<path d="M93.4065 466.43C93.4577 466.782 93.8158 467.326 94.6599 467.326C95.4208 467.326 95.7853 466.808 95.7853 466.373C95.7853 465.919 95.4912 465.58 94.9348 465.458L94.436 465.35C94.1994 465.298 94.0843 465.164 94.0843 464.979C94.0843 464.768 94.289 464.569 94.5959 464.569C95.0819 464.569 95.2098 464.921 95.2354 465.081L95.7661 464.883C95.7022 464.608 95.44 464.058 94.5959 464.058C93.9948 464.058 93.5024 464.505 93.5024 465.03C93.5024 465.465 93.7902 465.791 94.2698 465.893L94.7941 466.008C95.0499 466.066 95.1906 466.213 95.1906 466.405C95.1906 466.622 95.0052 466.814 94.6662 466.814C94.2314 466.814 93.9884 466.558 93.95 466.238L93.4065 466.43Z" fill="#AFBEC4"/>
<path d="M88.9143 447.052L87.1708 445.309C87.0621 445.2 86.9145 445.139 86.7598 445.139H79.7838C79.6292 445.139 79.4815 445.2 79.3728 445.309L77.6294 447.052C77.5236 447.157 77.4585 447.302 77.4585 447.463V455.021C77.4585 455.663 77.98 456.184 78.6212 456.184H87.9225C88.5637 456.184 89.0852 455.663 89.0852 455.021V447.463C89.0852 447.302 89.0201 447.157 88.9143 447.052ZM80.0245 446.301H86.5192L87.0999 446.882H79.4437L80.0245 446.301ZM78.6212 455.021V448.045H87.9225L87.9237 455.021H78.6212Z" fill="#AFBEC4"/>
<path d="M85.0159 450.952H81.5279V449.789H80.3652V452.115H86.1786V449.789H85.0159V450.952Z" fill="#AFBEC4"/>
<path d="M117.445 467.229V462.696H116.607L114.996 466.385L113.397 462.696H112.547V467.229H113.167V463.7L114.702 467.229H115.277L116.825 463.7V467.229H117.445Z" fill="#AFBEC4"/>
<path d="M118.924 465.375C118.95 464.978 119.257 464.588 119.762 464.588C120.305 464.588 120.593 464.934 120.606 465.375H118.924ZM120.696 466.174C120.58 466.52 120.331 466.795 119.832 466.795C119.314 466.795 118.918 466.411 118.905 465.861H121.22C121.226 465.823 121.233 465.746 121.233 465.669C121.233 464.71 120.702 464.058 119.756 464.058C118.982 464.058 118.285 464.716 118.285 465.682C118.285 466.724 119.007 467.325 119.832 467.325C120.548 467.325 121.041 466.897 121.213 466.353L120.696 466.174Z" fill="#AFBEC4"/>
<path d="M121.712 466.43C121.763 466.782 122.121 467.325 122.966 467.325C123.727 467.325 124.091 466.807 124.091 466.372C124.091 465.918 123.797 465.58 123.241 465.458L122.742 465.349C122.505 465.298 122.39 465.164 122.39 464.978C122.39 464.767 122.595 464.569 122.902 464.569C123.388 464.569 123.516 464.921 123.541 465.081L124.072 464.883C124.008 464.608 123.746 464.058 122.902 464.058C122.301 464.058 121.808 464.505 121.808 465.03C121.808 465.464 122.096 465.791 122.576 465.893L123.1 466.008C123.356 466.066 123.496 466.213 123.496 466.404C123.496 466.622 123.311 466.814 122.972 466.814C122.537 466.814 122.294 466.558 122.256 466.238L121.712 466.43Z" fill="#AFBEC4"/>
<path d="M124.604 466.43C124.655 466.782 125.013 467.325 125.857 467.325C126.618 467.325 126.982 466.807 126.982 466.372C126.982 465.918 126.688 465.58 126.132 465.458L125.633 465.349C125.397 465.298 125.281 465.164 125.281 464.978C125.281 464.767 125.486 464.569 125.793 464.569C126.279 464.569 126.407 464.921 126.432 465.081L126.963 464.883C126.899 464.608 126.637 464.058 125.793 464.058C125.192 464.058 124.699 464.505 124.699 465.03C124.699 465.464 124.987 465.791 125.467 465.893L125.991 466.008C126.247 466.066 126.388 466.213 126.388 466.404C126.388 466.622 126.202 466.814 125.863 466.814C125.428 466.814 125.185 466.558 125.147 466.238L124.604 466.43Z" fill="#AFBEC4"/>
<path d="M127.528 466.404C127.528 466.89 127.931 467.325 128.558 467.325C129.108 467.325 129.415 467.031 129.549 466.814C129.549 467.038 129.568 467.153 129.581 467.229H130.169C130.157 467.153 130.131 466.993 130.131 466.724V465.183C130.131 464.582 129.773 464.058 128.852 464.058C128.187 464.058 127.656 464.467 127.592 465.055L128.168 465.189C128.206 464.831 128.443 464.569 128.865 464.569C129.332 464.569 129.53 464.819 129.53 465.119C129.53 465.228 129.479 465.324 129.293 465.349L128.462 465.471C127.931 465.548 127.528 465.855 127.528 466.404ZM128.641 466.82C128.334 466.82 128.142 466.603 128.142 466.372C128.142 466.098 128.334 465.95 128.59 465.912L129.53 465.771V465.912C129.53 466.584 129.133 466.82 128.641 466.82Z" fill="#AFBEC4"/>
<path d="M130.844 467.396C130.92 468.054 131.496 468.54 132.263 468.54C133.421 468.54 133.804 467.779 133.804 466.999V464.154H133.21V464.582C133.056 464.275 132.736 464.096 132.263 464.096C131.419 464.096 130.85 464.761 130.85 465.592C130.85 466.462 131.445 467.082 132.263 467.082C132.724 467.082 133.056 466.858 133.203 466.577V467.018C133.203 467.683 132.909 468.016 132.263 468.016C131.796 468.016 131.47 467.69 131.426 467.261L130.844 467.396ZM132.353 466.577C131.809 466.577 131.464 466.193 131.464 465.592C131.464 464.998 131.822 464.608 132.353 464.608C132.871 464.608 133.229 464.998 133.229 465.592C133.229 466.187 132.871 466.577 132.353 466.577Z" fill="#AFBEC4"/>
<path d="M135.154 465.375C135.18 464.978 135.487 464.588 135.992 464.588C136.536 464.588 136.823 464.934 136.836 465.375H135.154ZM136.926 466.174C136.811 466.52 136.561 466.795 136.062 466.795C135.544 466.795 135.148 466.411 135.135 465.861H137.45C137.456 465.823 137.463 465.746 137.463 465.669C137.463 464.71 136.932 464.058 135.986 464.058C135.212 464.058 134.515 464.716 134.515 465.682C134.515 466.724 135.238 467.325 136.062 467.325C136.779 467.325 137.271 466.897 137.444 466.353L136.926 466.174Z" fill="#AFBEC4"/>
<path d="M137.942 466.43C137.994 466.782 138.352 467.325 139.196 467.325C139.957 467.325 140.321 466.807 140.321 466.372C140.321 465.918 140.027 465.58 139.471 465.458L138.972 465.349C138.735 465.298 138.62 465.164 138.62 464.978C138.62 464.767 138.825 464.569 139.132 464.569C139.618 464.569 139.746 464.921 139.771 465.081L140.302 464.883C140.238 464.608 139.976 464.058 139.132 464.058C138.531 464.058 138.038 464.505 138.038 465.03C138.038 465.464 138.326 465.791 138.806 465.893L139.33 466.008C139.586 466.066 139.727 466.213 139.727 466.404C139.727 466.622 139.541 466.814 139.202 466.814C138.767 466.814 138.524 466.558 138.486 466.238L137.942 466.43Z" fill="#AFBEC4"/>
<path d="M128.616 445.139H123.966C122.042 445.139 120.478 446.703 120.478 448.627V456.184C120.478 456.505 120.737 456.765 121.059 456.765H128.616C130.54 456.765 132.104 455.201 132.104 453.277V448.627C132.104 446.703 130.54 445.139 128.616 445.139ZM130.942 453.277C130.941 453.894 130.696 454.485 130.26 454.921C129.824 455.357 129.233 455.602 128.616 455.603H121.64V448.627C121.64 448.01 121.886 447.419 122.322 446.983C122.758 446.547 123.349 446.302 123.966 446.301H128.616C129.233 446.302 129.824 446.547 130.26 446.983C130.696 447.419 130.941 448.01 130.942 448.627V453.277ZM123.384 449.208H129.198V450.371H123.384V449.208ZM123.384 451.533H127.454V452.696H123.384V451.533Z" fill="#AFBEC4"/>
<path d="M160.282 464.959C160.282 463.776 161.075 463.175 161.919 463.175C162.763 463.175 163.556 463.776 163.556 464.959C163.556 466.142 162.763 466.75 161.919 466.75C161.075 466.75 160.282 466.142 160.282 464.959ZM159.643 464.959C159.643 466.475 160.781 467.326 161.919 467.326C163.057 467.326 164.196 466.475 164.196 464.959C164.196 463.444 163.057 462.6 161.919 462.6C160.781 462.6 159.643 463.444 159.643 464.959Z" fill="#AFBEC4"/>
<path d="M166.701 464.122C166.669 464.115 166.586 464.103 166.503 464.103C166.189 464.103 165.805 464.218 165.582 464.691V464.154H164.993V467.23H165.594V465.688C165.594 465.011 165.933 464.742 166.439 464.742C166.522 464.742 166.611 464.748 166.701 464.761V464.122Z" fill="#AFBEC4"/>
<path d="M167.668 465.682C167.668 465.049 168.026 464.601 168.576 464.601C169.126 464.601 169.459 465.036 169.459 465.669C169.459 466.302 169.12 466.782 168.57 466.782C167.994 466.782 167.668 466.315 167.668 465.682ZM169.465 466.814C169.465 466.999 169.484 467.159 169.497 467.23H170.079C170.073 467.178 170.047 466.955 170.047 466.66V462.6H169.452V464.589C169.35 464.339 169.056 464.071 168.512 464.071C167.643 464.071 167.054 464.812 167.054 465.682C167.054 466.597 167.611 467.313 168.512 467.313C168.992 467.313 169.318 467.057 169.465 466.763V466.814Z" fill="#AFBEC4"/>
<path d="M171.46 465.375C171.485 464.979 171.792 464.589 172.297 464.589C172.841 464.589 173.129 464.934 173.141 465.375H171.46ZM173.231 466.174C173.116 466.52 172.866 466.795 172.368 466.795C171.85 466.795 171.453 466.411 171.44 465.861H173.755C173.762 465.823 173.768 465.746 173.768 465.669C173.768 464.71 173.237 464.058 172.291 464.058C171.517 464.058 170.82 464.716 170.82 465.682C170.82 466.724 171.543 467.326 172.368 467.326C173.084 467.326 173.576 466.897 173.749 466.354L173.231 466.174Z" fill="#AFBEC4"/>
<path d="M176.243 464.122C176.211 464.115 176.128 464.103 176.045 464.103C175.731 464.103 175.348 464.218 175.124 464.691V464.154H174.535V467.23H175.137V465.688C175.137 465.011 175.475 464.742 175.981 464.742C176.064 464.742 176.153 464.748 176.243 464.761V464.122Z" fill="#AFBEC4"/>
<path d="M176.596 466.43C176.647 466.782 177.005 467.326 177.849 467.326C178.61 467.326 178.975 466.808 178.975 466.373C178.975 465.919 178.68 465.58 178.124 465.458L177.625 465.35C177.389 465.298 177.274 465.164 177.274 464.979C177.274 464.768 177.478 464.569 177.785 464.569C178.271 464.569 178.399 464.921 178.425 465.081L178.955 464.883C178.891 464.608 178.629 464.058 177.785 464.058C177.184 464.058 176.692 464.505 176.692 465.03C176.692 465.465 176.979 465.791 177.459 465.893L177.983 466.008C178.239 466.066 178.38 466.213 178.38 466.405C178.38 466.622 178.194 466.814 177.855 466.814C177.421 466.814 177.178 466.558 177.139 466.238L176.596 466.43Z" fill="#AFBEC4"/>
<path d="M174.541 450.371H172.797V446.301C172.797 445.98 172.537 445.72 172.216 445.72H164.077C163.756 445.72 163.496 445.98 163.496 446.301V454.44C163.496 455.401 164.278 456.184 165.24 456.184H173.378C174.34 456.184 175.122 455.401 175.122 454.44V450.952C175.122 450.631 174.863 450.371 174.541 450.371ZM165.24 455.021C165.086 455.021 164.938 454.96 164.829 454.851C164.72 454.742 164.659 454.594 164.658 454.44V446.883H171.634V454.44C171.634 454.644 171.67 454.84 171.734 455.021H165.24ZM173.96 454.44C173.956 454.591 173.893 454.735 173.784 454.841C173.676 454.947 173.53 455.006 173.379 455.006C173.227 455.006 173.082 454.947 172.973 454.841C172.865 454.735 172.801 454.591 172.797 454.44V451.533H173.96V454.44ZM165.821 448.045H170.472V449.208H165.821V448.045ZM165.821 450.371H170.472V451.533H165.821V450.371ZM168.728 452.696H170.472V453.859H168.728V452.696Z" fill="#AFBEC4"/>
<path d="M203.928 467.229H204.606L202.802 462.696H202.08L200.276 467.229H200.948L201.427 465.963H203.435L203.928 467.229ZM202.425 463.348L203.212 465.381H201.651L202.425 463.348Z" fill="#AFBEC4"/>
<path d="M206.412 464.614C206.936 464.614 207.16 464.966 207.237 465.266L207.781 465.036C207.653 464.569 207.231 464.058 206.412 464.058C205.536 464.058 204.865 464.729 204.865 465.688C204.865 466.622 205.523 467.325 206.418 467.325C207.218 467.325 207.659 466.807 207.806 466.366L207.275 466.136C207.205 466.379 206.994 466.769 206.418 466.769C205.92 466.769 205.478 466.392 205.478 465.688C205.478 464.972 205.926 464.614 206.412 464.614Z" fill="#AFBEC4"/>
<path d="M209.772 464.614C210.296 464.614 210.52 464.966 210.597 465.266L211.14 465.036C211.012 464.569 210.59 464.058 209.772 464.058C208.896 464.058 208.224 464.729 208.224 465.688C208.224 466.622 208.883 467.325 209.778 467.325C210.577 467.325 211.019 466.807 211.166 466.366L210.635 466.136C210.565 466.379 210.354 466.769 209.778 466.769C209.279 466.769 208.838 466.392 208.838 465.688C208.838 464.972 209.286 464.614 209.772 464.614Z" fill="#AFBEC4"/>
<path d="M213.157 466.788C212.645 466.788 212.198 466.404 212.198 465.688C212.198 464.978 212.645 464.595 213.157 464.595C213.669 464.595 214.116 464.978 214.116 465.688C214.116 466.404 213.669 466.788 213.157 466.788ZM213.157 464.058C212.236 464.058 211.584 464.755 211.584 465.688C211.584 466.628 212.236 467.325 213.157 467.325C214.078 467.325 214.73 466.628 214.73 465.688C214.73 464.755 214.078 464.058 213.157 464.058Z" fill="#AFBEC4"/>
<path d="M217.495 466.858C217.495 466.986 217.508 467.159 217.521 467.229H218.096C218.083 467.121 218.064 466.903 218.064 466.66V464.154H217.463V466.008C217.463 466.475 217.22 466.795 216.734 466.795C216.229 466.795 216.037 466.424 216.037 466.002V464.154H215.436V466.091C215.436 466.788 215.871 467.325 216.587 467.325C216.945 467.325 217.329 467.178 217.495 466.858Z" fill="#AFBEC4"/>
<path d="M219.691 465.452C219.691 464.985 219.934 464.608 220.407 464.608C220.944 464.608 221.123 464.953 221.123 465.381V467.229H221.725V465.279C221.725 464.595 221.36 464.064 220.625 464.064C220.267 464.064 219.902 464.211 219.678 464.595V464.154H219.09V467.229H219.691V465.452Z" fill="#AFBEC4"/>
<path d="M223.486 463.182H222.936V463.68C222.936 463.949 222.796 464.154 222.463 464.154H222.297V464.697H222.885V466.385C222.885 466.942 223.218 467.261 223.742 467.261C223.947 467.261 224.1 467.223 224.151 467.204V466.692C224.1 466.705 223.992 466.718 223.915 466.718C223.602 466.718 223.486 466.577 223.486 466.296V464.697H224.151V464.154H223.486V463.182Z" fill="#AFBEC4"/>
<path d="M212.327 445.139C210.724 445.139 209.421 446.443 209.421 448.045C209.421 449.648 210.724 450.952 212.327 450.952C213.93 450.952 215.234 449.648 215.234 448.045C215.234 446.443 213.93 445.139 212.327 445.139ZM212.327 449.789C211.366 449.789 210.583 449.007 210.583 448.045C210.583 447.084 211.366 446.301 212.327 446.301C213.289 446.301 214.071 447.084 214.071 448.045C214.071 449.007 213.289 449.789 212.327 449.789ZM217.559 456.184V455.603C217.559 453.359 215.733 451.533 213.49 451.533H211.165C208.921 451.533 207.095 453.359 207.095 455.603V456.184H208.258V455.603C208.258 454 209.562 452.696 211.165 452.696H213.49C215.093 452.696 216.397 454 216.397 455.603V456.184H217.559Z" fill="#AFBEC4"/>
<path fill-rule="evenodd" clip-rule="evenodd" d="M87.0186 481.235C87.0186 480.423 87.677 479.765 88.4891 479.765H163.089C163.901 479.765 164.56 480.423 164.56 481.235V481.235C164.56 482.047 163.901 482.706 163.089 482.706H88.4891C87.677 482.706 87.0186 482.047 87.0186 481.235V481.235Z" fill="#EFE3E3"/>
<g filter="url(#filter2_d)">
<rect x="26" y="179" width="95" height="57" rx="4" fill="white"/>
</g>
</g>
<path d="M46.4748 192.652C46.4731 192.611 46.4691 192.569 46.4583 192.53C46.4543 192.515 46.4464 192.502 46.4413 192.487C46.4293 192.455 46.4185 192.423 46.4014 192.393C46.3923 192.378 46.3798 192.365 46.369 192.351C46.3508 192.325 46.3332 192.299 46.311 192.277C46.2979 192.264 46.2808 192.254 46.2666 192.242C46.2444 192.224 46.224 192.204 46.1984 192.188C46.1961 192.186 46.1932 192.186 46.1904 192.185C46.1887 192.184 46.1876 192.182 46.1858 192.181L41.078 189.337C40.9068 189.241 40.6986 189.242 40.5262 189.336L35.3945 192.181C35.3928 192.182 35.3911 192.185 35.3883 192.186C35.3866 192.187 35.3843 192.188 35.3826 192.189C35.3627 192.2 35.3479 192.217 35.3291 192.23C35.3086 192.246 35.287 192.259 35.2688 192.277C35.2517 192.295 35.2387 192.315 35.2239 192.335C35.2085 192.355 35.1914 192.373 35.1789 192.395C35.1641 192.419 35.1562 192.447 35.1454 192.474C35.1374 192.493 35.1272 192.51 35.122 192.531C35.1112 192.569 35.1078 192.61 35.1055 192.65C35.105 192.66 35.1016 192.669 35.1016 192.679V192.68V192.68V197.24C35.1016 197.447 35.2136 197.638 35.3945 197.738L40.5018 200.581L40.5023 200.581C40.5029 200.581 40.5029 200.581 40.5035 200.582L40.5149 200.588C40.5393 200.602 40.5661 200.609 40.5917 200.619C40.6099 200.626 40.6275 200.636 40.6468 200.641C40.6929 200.653 40.7418 200.66 40.7902 200.66C40.8385 200.66 40.8875 200.653 40.9347 200.641C40.9534 200.636 40.9711 200.626 40.9899 200.619C41.0155 200.609 41.0422 200.603 41.0667 200.588L41.078 200.582C41.0786 200.581 41.0786 200.581 41.0792 200.581L41.0797 200.581L46.187 197.738C46.3667 197.638 46.4788 197.447 46.4788 197.24V192.68V192.68V192.679C46.4788 192.669 46.4754 192.661 46.4748 192.652ZM40.7743 194.887L36.8411 192.683L38.4123 191.812L42.2999 194.038L40.7743 194.887ZM40.8016 190.487L44.7387 192.68L43.4621 193.391L39.5768 191.166L40.8016 190.487ZM36.2393 193.652L40.2213 195.884V199.122L36.2393 196.904V193.652ZM41.359 199.122L41.3602 195.885L43.0656 194.928V196.67L44.2034 196.1V194.29L45.3411 193.653V196.904L41.359 199.122Z" fill="#EB5757"/>
<g filter="url(#filter3_d)">
<rect x="26" y="244" width="95" height="58" rx="4" fill="white"/>
</g>
<path d="M43.4092 259.688C43.7528 259.091 43.9053 258.396 43.8364 257.693C43.7346 256.658 43.168 255.743 42.2419 255.117L41.6133 256.084C42.2499 256.514 42.6373 257.127 42.7044 257.809C42.767 258.45 42.5451 259.081 42.0946 259.541L41.4165 260.232L42.3369 260.507C44.7443 261.227 44.7722 263.695 44.7722 263.72H45.9099C45.9099 262.682 45.3661 260.655 43.4092 259.688Z" fill="#F2994A"/>
<path d="M39.3685 260.24C40.6234 260.24 41.644 259.2 41.644 257.92C41.644 256.641 40.6234 255.6 39.3685 255.6C38.1136 255.6 37.0931 256.641 37.0931 257.92C37.0931 259.2 38.1136 260.24 39.3685 260.24ZM39.3685 256.76C39.996 256.76 40.5062 257.28 40.5062 257.92C40.5062 258.56 39.996 259.08 39.3685 259.08C38.7411 259.08 38.2308 258.56 38.2308 257.92C38.2308 257.28 38.7411 256.76 39.3685 256.76ZM40.2218 260.82H38.5152C36.6329 260.82 35.1021 262.381 35.1021 264.3V264.88H36.2398V264.3C36.2398 263.021 37.2603 261.98 38.5152 261.98H40.2218C41.4767 261.98 42.4973 263.021 42.4973 264.3V264.88H43.635V264.3C43.635 262.381 42.1042 260.82 40.2218 260.82Z" fill="#F2994A"/>
<g filter="url(#filter4_d)">
<rect x="130" y="179" width="95" height="57" rx="4" fill="white"/>
</g>
<path d="M150.475 192.652C150.473 192.611 150.469 192.569 150.458 192.53C150.454 192.515 150.446 192.502 150.441 192.487C150.429 192.455 150.419 192.423 150.401 192.393C150.392 192.378 150.38 192.365 150.369 192.351C150.351 192.325 150.333 192.299 150.311 192.277C150.298 192.264 150.281 192.254 150.267 192.242C150.244 192.224 150.224 192.204 150.198 192.188C150.196 192.186 150.193 192.186 150.19 192.185C150.189 192.184 150.188 192.182 150.186 192.181L145.078 189.337C144.907 189.241 144.699 189.242 144.526 189.336L139.395 192.181C139.393 192.182 139.391 192.185 139.388 192.186C139.387 192.187 139.384 192.188 139.383 192.189C139.363 192.2 139.348 192.217 139.329 192.23C139.309 192.246 139.287 192.259 139.269 192.277C139.252 192.295 139.239 192.315 139.224 192.335C139.209 192.355 139.191 192.373 139.179 192.395C139.164 192.419 139.156 192.447 139.145 192.474C139.137 192.493 139.127 192.51 139.122 192.531C139.111 192.569 139.108 192.61 139.106 192.65C139.105 192.66 139.102 192.669 139.102 192.679V192.68V192.68V197.24C139.102 197.447 139.214 197.638 139.395 197.738L144.502 200.581L144.502 200.581C144.503 200.581 144.503 200.581 144.503 200.582L144.515 200.588C144.539 200.602 144.566 200.609 144.592 200.619C144.61 200.626 144.627 200.636 144.647 200.641C144.693 200.653 144.742 200.66 144.79 200.66C144.839 200.66 144.887 200.653 144.935 200.641C144.953 200.636 144.971 200.626 144.99 200.619C145.015 200.609 145.042 200.603 145.067 200.588L145.078 200.582C145.079 200.581 145.079 200.581 145.079 200.581L145.08 200.581L150.187 197.738C150.367 197.638 150.479 197.447 150.479 197.24V192.68V192.68V192.679C150.479 192.669 150.475 192.661 150.475 192.652ZM144.774 194.887L140.841 192.683L142.412 191.812L146.3 194.038L144.774 194.887ZM144.802 190.487L148.739 192.68L147.462 193.391L143.577 191.166L144.802 190.487ZM140.239 193.652L144.221 195.884V199.122L140.239 196.904V193.652ZM145.359 199.122L145.36 195.885L147.066 194.928V196.67L148.203 196.1V194.29L149.341 193.653V196.904L145.359 199.122Z" fill="#2F80ED"/>
<g filter="url(#filter5_d)">
<rect x="130" y="244" width="95" height="58" rx="4" fill="white"/>
</g>
<path d="M36.39 221.43V219.598H37.4402C38.0687 219.598 38.4533 219.96 38.4533 220.525C38.4533 221.075 38.0687 221.43 37.4402 221.43H36.39ZM37.5733 222.093C38.542 222.093 39.1928 221.422 39.1928 220.518C39.1928 219.62 38.542 218.934 37.5733 218.934H35.6653V224.28H36.39V222.093H37.5733Z" fill="#4B4A5A"/>
<path d="M40.1589 222.093C40.1885 221.626 40.5435 221.166 41.1277 221.166C41.7563 221.166 42.0891 221.573 42.1039 222.093H40.1589ZM42.2074 223.036C42.0743 223.443 41.7859 223.767 41.2091 223.767C40.61 223.767 40.1515 223.315 40.1367 222.666H42.8138C42.8212 222.621 42.8286 222.531 42.8286 222.44C42.8286 221.309 42.2148 220.54 41.1203 220.54C40.2255 220.54 39.4194 221.317 39.4194 222.455C39.4194 223.684 40.2551 224.393 41.2091 224.393C42.0373 224.393 42.6067 223.888 42.8064 223.247L42.2074 223.036Z" fill="#4B4A5A"/>
<path d="M44.4111 222.184C44.4111 221.633 44.6921 221.189 45.2394 221.189C45.8606 221.189 46.0676 221.596 46.0676 222.101V224.28H46.7628V221.98C46.7628 221.173 46.3413 220.548 45.4908 220.548C45.0767 220.548 44.6552 220.721 44.3963 221.173V220.653H43.716V224.28H44.4111V222.184Z" fill="#4B4A5A"/>
<path d="M48.2827 222.455C48.2827 221.709 48.6968 221.181 49.3328 221.181C49.9688 221.181 50.3533 221.694 50.3533 222.44C50.3533 223.187 49.9614 223.752 49.3254 223.752C48.6598 223.752 48.2827 223.202 48.2827 222.455ZM50.3607 223.79C50.3607 224.009 50.3829 224.197 50.3977 224.28H51.0707C51.0633 224.22 51.0337 223.956 51.0337 223.609V218.821H50.3459V221.166C50.2276 220.872 49.8874 220.555 49.2589 220.555C48.2531 220.555 47.5727 221.43 47.5727 222.455C47.5727 223.534 48.2161 224.378 49.2589 224.378C49.8135 224.378 50.1907 224.076 50.3607 223.73V223.79Z" fill="#4B4A5A"/>
<path d="M52.9039 224.28V220.653H52.2161V224.28H52.9039ZM52.0608 219.281C52.0608 219.56 52.2827 219.786 52.5563 219.786C52.8373 219.786 53.0592 219.56 53.0592 219.281C53.0592 218.994 52.8373 218.768 52.5563 218.768C52.2827 218.768 52.0608 218.994 52.0608 219.281Z" fill="#4B4A5A"/>
<path d="M54.7817 222.184C54.7817 221.633 55.0628 221.189 55.61 221.189C56.2312 221.189 56.4383 221.596 56.4383 222.101V224.28H57.1334V221.98C57.1334 221.173 56.7119 220.548 55.8614 220.548C55.4473 220.548 55.0258 220.721 54.767 221.173V220.653H54.0866V224.28H54.7817V222.184Z" fill="#4B4A5A"/>
<path d="M57.9803 224.476C58.0691 225.253 58.7347 225.826 59.6221 225.826C60.9606 225.826 61.4043 224.928 61.4043 224.009V220.653H60.7166V221.158C60.5391 220.796 60.1693 220.585 59.6221 220.585C58.6459 220.585 57.9877 221.37 57.9877 222.35C57.9877 223.375 58.6755 224.107 59.6221 224.107C60.1545 224.107 60.5391 223.843 60.7092 223.511V224.031C60.7092 224.815 60.369 225.207 59.6221 225.207C59.0822 225.207 58.7051 224.823 58.6533 224.318L57.9803 224.476ZM59.7256 223.511C59.097 223.511 58.6977 223.058 58.6977 222.35C58.6977 221.649 59.1118 221.189 59.7256 221.189C60.3246 221.189 60.7388 221.649 60.7388 222.35C60.7388 223.051 60.3246 223.511 59.7256 223.511Z" fill="#4B4A5A"/>
<path d="M64.844 221.603C64.844 220.208 65.761 219.5 66.7372 219.5C67.7134 219.5 68.6304 220.208 68.6304 221.603C68.6304 222.998 67.7134 223.714 66.7372 223.714C65.761 223.714 64.844 222.998 64.844 221.603ZM64.1045 221.603C64.1045 223.39 65.4209 224.393 66.7372 224.393C68.0535 224.393 69.3699 223.39 69.3699 221.603C69.3699 219.816 68.0535 218.821 66.7372 218.821C65.4209 218.821 64.1045 219.816 64.1045 221.603Z" fill="#4B4A5A"/>
<path d="M72.267 220.616C72.2301 220.608 72.1339 220.593 72.0378 220.593C71.6754 220.593 71.2317 220.729 70.9729 221.287V220.653H70.2925V224.28H70.9877V222.463C70.9877 221.664 71.3796 221.347 71.9638 221.347C72.06 221.347 72.1635 221.354 72.267 221.37V220.616Z" fill="#4B4A5A"/>
<path d="M73.386 222.455C73.386 221.709 73.8001 221.181 74.4361 221.181C75.0721 221.181 75.4566 221.694 75.4566 222.44C75.4566 223.187 75.0647 223.752 74.4287 223.752C73.7631 223.752 73.386 223.202 73.386 222.455ZM75.464 223.79C75.464 224.009 75.4862 224.197 75.501 224.28H76.1739C76.1666 224.22 76.137 223.956 76.137 223.609V218.821H75.4492V221.166C75.3309 220.872 74.9907 220.555 74.3621 220.555C73.3564 220.555 72.676 221.43 72.676 222.455C72.676 223.534 73.3194 224.378 74.3621 224.378C74.9168 224.378 75.2939 224.076 75.464 223.73V223.79Z" fill="#4B4A5A"/>
<path d="M77.7705 222.093C77.8001 221.626 78.1551 221.166 78.7393 221.166C79.3679 221.166 79.7007 221.573 79.7154 222.093H77.7705ZM79.819 223.036C79.6859 223.443 79.3975 223.767 78.8206 223.767C78.2216 223.767 77.7631 223.315 77.7483 222.666H80.4254C80.4328 222.621 80.4402 222.531 80.4402 222.44C80.4402 221.309 79.8264 220.54 78.7319 220.54C77.8371 220.54 77.031 221.317 77.031 222.455C77.031 223.684 77.8666 224.393 78.8206 224.393C79.6489 224.393 80.2183 223.888 80.418 223.247L79.819 223.036Z" fill="#4B4A5A"/>
<path d="M83.3021 220.616C83.2651 220.608 83.169 220.593 83.0728 220.593C82.7104 220.593 82.2667 220.729 82.0079 221.287V220.653H81.3275V224.28H82.0227V222.463C82.0227 221.664 82.4146 221.347 82.9989 221.347C83.095 221.347 83.1985 221.354 83.3021 221.37V220.616Z" fill="#4B4A5A"/>
<path d="M83.7102 223.337C83.7694 223.752 84.1835 224.393 85.1596 224.393C86.0397 224.393 86.4612 223.782 86.4612 223.27C86.4612 222.734 86.121 222.335 85.4776 222.191L84.9008 222.063C84.6272 222.003 84.4941 221.845 84.4941 221.626C84.4941 221.377 84.7307 221.143 85.0857 221.143C85.6477 221.143 85.7956 221.558 85.8252 221.747L86.439 221.513C86.3651 221.189 86.0619 220.54 85.0857 220.54C84.3905 220.54 83.8211 221.068 83.8211 221.686C83.8211 222.199 84.1539 222.583 84.7085 222.704L85.3149 222.84C85.6108 222.908 85.7735 223.081 85.7735 223.307C85.7735 223.564 85.559 223.79 85.167 223.79C84.6642 223.79 84.3832 223.488 84.3388 223.111L83.7102 223.337Z" fill="#4B4A5A"/>
<path d="M107.982 194.25C107.982 193.303 108.119 192.496 108.46 191.953C108.733 191.508 109.157 191.215 109.798 191.215C110.454 191.215 110.85 191.508 111.123 191.953C111.478 192.496 111.614 193.303 111.614 194.25C111.614 195.196 111.478 196.004 111.123 196.547C110.85 196.992 110.454 197.284 109.798 197.284C109.157 197.284 108.733 196.992 108.46 196.547C108.119 196.004 107.982 195.196 107.982 194.25ZM106.098 194.25C106.098 195.405 106.276 196.533 106.877 197.465C107.464 198.356 108.419 198.983 109.798 198.983C111.177 198.983 112.133 198.356 112.706 197.465C113.307 196.533 113.498 195.405 113.498 194.25C113.498 193.095 113.307 191.967 112.706 191.034C112.133 190.143 111.177 189.517 109.798 189.517C108.419 189.517 107.464 190.143 106.877 191.034C106.276 191.967 106.098 193.095 106.098 194.25Z" fill="#4B4A5A"/>
<path d="M37.9356 290.513C39.1411 290.513 39.9693 289.797 40.2503 288.794L39.607 288.553C39.3925 289.284 38.8305 289.834 37.9356 289.834C36.9817 289.834 36.072 289.118 36.072 287.723C36.072 286.328 36.9817 285.62 37.9356 285.62C38.7935 285.62 39.3703 286.072 39.57 286.879L40.2429 286.638C39.9767 285.605 39.1337 284.941 37.9356 284.941C36.6341 284.941 35.3325 285.936 35.3325 287.723C35.3325 289.51 36.5823 290.513 37.9356 290.513Z" fill="#4B4A5A"/>
<path d="M43.3376 289.963C43.3376 290.113 43.3524 290.317 43.3672 290.4H44.0328C44.018 290.272 43.9958 290.015 43.9958 289.729V286.773H43.3006V288.96C43.3006 289.51 43.0196 289.887 42.4576 289.887C41.8734 289.887 41.6515 289.45 41.6515 288.952V286.773H40.9563V289.058C40.9563 289.88 41.4592 290.513 42.2875 290.513C42.7016 290.513 43.1453 290.34 43.3376 289.963Z" fill="#4B4A5A"/>
<path d="M44.8492 289.457C44.9084 289.872 45.3225 290.513 46.2987 290.513C47.1787 290.513 47.6002 289.902 47.6002 289.39C47.6002 288.854 47.2601 288.455 46.6167 288.311L46.0399 288.183C45.7662 288.123 45.6331 287.965 45.6331 287.746C45.6331 287.497 45.8698 287.263 46.2247 287.263C46.7868 287.263 46.9347 287.678 46.9643 287.867L47.5781 287.633C47.5041 287.309 47.2009 286.66 46.2247 286.66C45.5296 286.66 44.9602 287.188 44.9602 287.806C44.9602 288.319 45.2929 288.703 45.8476 288.824L46.454 288.96C46.7498 289.028 46.9125 289.201 46.9125 289.427C46.9125 289.684 46.698 289.91 46.3061 289.91C45.8032 289.91 45.5222 289.608 45.4778 289.231L44.8492 289.457Z" fill="#4B4A5A"/>
<path d="M49.4575 285.627H48.8216V286.215C48.8216 286.532 48.6589 286.773 48.2743 286.773H48.082V287.414H48.7624V289.405C48.7624 290.061 49.1469 290.438 49.7534 290.438C49.99 290.438 50.1675 290.392 50.2266 290.37V289.767C50.1675 289.782 50.0418 289.797 49.953 289.797C49.5907 289.797 49.4575 289.631 49.4575 289.299V287.414H50.2266V286.773H49.4575V285.627Z" fill="#4B4A5A"/>
<path d="M52.6418 289.88C52.0502 289.88 51.5325 289.427 51.5325 288.583C51.5325 287.746 52.0502 287.293 52.6418 287.293C53.2334 287.293 53.7511 287.746 53.7511 288.583C53.7511 289.427 53.2334 289.88 52.6418 289.88ZM52.6418 286.66C51.5769 286.66 50.8226 287.482 50.8226 288.583C50.8226 289.691 51.5769 290.513 52.6418 290.513C53.7067 290.513 54.461 289.691 54.461 288.583C54.461 287.482 53.7067 286.66 52.6418 286.66Z" fill="#4B4A5A"/>
<path d="M56.0382 290.4V288.213C56.0382 287.67 56.371 287.293 56.8664 287.293C57.3989 287.293 57.6208 287.655 57.6208 288.123V290.4H58.3159V288.206C58.3159 287.686 58.6487 287.293 59.1368 287.293C59.6618 287.293 59.8911 287.648 59.8911 288.123V290.4H60.5788V288.047C60.5788 287.097 59.9724 286.668 59.3512 286.668C58.9001 286.668 58.4416 286.834 58.1606 287.354C57.9683 286.886 57.5394 286.668 57.0957 286.668C56.6816 286.668 56.2379 286.856 56.016 287.256V286.773H55.3504V290.4H56.0382Z" fill="#4B4A5A"/>
<path d="M62.1423 288.213C62.1719 287.746 62.5269 287.286 63.1111 287.286C63.7397 287.286 64.0725 287.693 64.0873 288.213H62.1423ZM64.1908 289.156C64.0577 289.563 63.7693 289.887 63.1925 289.887C62.5935 289.887 62.135 289.435 62.1202 288.786H64.7972C64.8046 288.741 64.812 288.651 64.812 288.56C64.812 287.429 64.1982 286.66 63.1037 286.66C62.2089 286.66 61.4028 287.437 61.4028 288.575C61.4028 289.804 62.2385 290.513 63.1925 290.513C64.0207 290.513 64.5902 290.008 64.7898 289.367L64.1908 289.156Z" fill="#4B4A5A"/>
<path d="M67.6739 286.736C67.6369 286.728 67.5408 286.713 67.4447 286.713C67.0823 286.713 66.6386 286.849 66.3797 287.407V286.773H65.6994V290.4H66.3945V288.583C66.3945 287.784 66.7865 287.467 67.3707 287.467C67.4668 287.467 67.5704 287.474 67.6739 287.49V286.736Z" fill="#4B4A5A"/>
<path d="M68.082 289.457C68.1412 289.872 68.5553 290.513 69.5315 290.513C70.4115 290.513 70.833 289.902 70.833 289.39C70.833 288.854 70.4929 288.455 69.8495 288.311L69.2727 288.183C68.999 288.123 68.8659 287.965 68.8659 287.746C68.8659 287.497 69.1026 287.263 69.4575 287.263C70.0196 287.263 70.1675 287.678 70.1971 287.867L70.8109 287.633C70.7369 287.309 70.4337 286.66 69.4575 286.66C68.7624 286.66 68.193 287.188 68.193 287.806C68.193 288.319 68.5257 288.703 69.0804 288.824L69.6868 288.96C69.9826 289.028 70.1453 289.201 70.1453 289.427C70.1453 289.684 69.9308 289.91 69.5389 289.91C69.036 289.91 68.755 289.608 68.7106 289.231L68.082 289.457Z" fill="#4B4A5A"/>
<path d="M109.962 264.88V255.846H108.337C108.16 256.792 107.259 257.53 105.962 257.544V258.839H108.092V264.88H109.962Z" fill="#4B4A5A"/>
<path d="M140.9 224.393C142.105 224.393 142.933 223.677 143.214 222.674L142.571 222.433C142.357 223.164 141.795 223.714 140.9 223.714C139.946 223.714 139.036 222.998 139.036 221.603C139.036 220.208 139.946 219.5 140.9 219.5C141.758 219.5 142.334 219.952 142.534 220.759L143.207 220.518C142.941 219.485 142.098 218.821 140.9 218.821C139.598 218.821 138.297 219.816 138.297 221.603C138.297 223.39 139.546 224.393 140.9 224.393Z" fill="#4B4A5A"/>
<path d="M145.481 223.76C144.889 223.76 144.372 223.307 144.372 222.463C144.372 221.626 144.889 221.173 145.481 221.173C146.072 221.173 146.59 221.626 146.59 222.463C146.59 223.307 146.072 223.76 145.481 223.76ZM145.481 220.54C144.416 220.54 143.662 221.362 143.662 222.463C143.662 223.571 144.416 224.393 145.481 224.393C146.546 224.393 147.3 223.571 147.3 222.463C147.3 221.362 146.546 220.54 145.481 220.54Z" fill="#4B4A5A"/>
<path d="M148.885 222.184C148.885 221.633 149.166 221.189 149.713 221.189C150.334 221.189 150.541 221.596 150.541 222.101V224.28H151.236V221.98C151.236 221.173 150.815 220.548 149.964 220.548C149.55 220.548 149.129 220.721 148.87 221.173V220.653H148.189V224.28H148.885V222.184Z" fill="#4B4A5A"/>
<path d="M153.725 218.798C153.082 218.798 152.556 219.236 152.556 220.042V220.653H151.898V221.294H152.556V224.28H153.274V221.294H154.938V224.28H155.625V220.653H153.274V220.073C153.274 219.575 153.592 219.462 153.836 219.462C154.013 219.462 154.102 219.492 154.139 219.507V218.874C154.109 218.851 153.962 218.798 153.725 218.798ZM154.782 219.266C154.782 219.545 155.004 219.771 155.278 219.771C155.559 219.771 155.781 219.545 155.781 219.266C155.781 218.979 155.559 218.753 155.278 218.753C155.004 218.753 154.782 218.979 154.782 219.266Z" fill="#4B4A5A"/>
<path d="M158.78 220.616C158.743 220.608 158.647 220.593 158.55 220.593C158.188 220.593 157.744 220.729 157.485 221.287V220.653H156.805V224.28H157.5V222.463C157.5 221.664 157.892 221.347 158.476 221.347C158.573 221.347 158.676 221.354 158.78 221.37V220.616Z" fill="#4B4A5A"/>
<path d="M160.208 224.28V222.093C160.208 221.55 160.541 221.173 161.037 221.173C161.569 221.173 161.791 221.535 161.791 222.003V224.28H162.486V222.086C162.486 221.566 162.819 221.173 163.307 221.173C163.832 221.173 164.061 221.528 164.061 222.003V224.28H164.749V221.927C164.749 220.977 164.143 220.548 163.521 220.548C163.07 220.548 162.612 220.714 162.331 221.234C162.138 220.766 161.71 220.548 161.266 220.548C160.852 220.548 160.408 220.736 160.186 221.136V220.653H159.521V224.28H160.208Z" fill="#4B4A5A"/>
<path d="M166.312 222.093C166.342 221.626 166.697 221.166 167.281 221.166C167.91 221.166 168.243 221.573 168.257 222.093H166.312ZM168.361 223.036C168.228 223.443 167.939 223.767 167.363 223.767C166.764 223.767 166.305 223.315 166.29 222.666H168.967C168.975 222.621 168.982 222.531 168.982 222.44C168.982 221.309 168.368 220.54 167.274 220.54C166.379 220.54 165.573 221.317 165.573 222.455C165.573 223.684 166.409 224.393 167.363 224.393C168.191 224.393 168.76 223.888 168.96 223.247L168.361 223.036Z" fill="#4B4A5A"/>
<path d="M170.284 222.455C170.284 221.709 170.698 221.181 171.334 221.181C171.97 221.181 172.354 221.694 172.354 222.44C172.354 223.187 171.962 223.752 171.326 223.752C170.661 223.752 170.284 223.202 170.284 222.455ZM172.362 223.79C172.362 224.009 172.384 224.197 172.399 224.28H173.072C173.064 224.22 173.035 223.956 173.035 223.609V218.821H172.347V221.166C172.229 220.872 171.888 220.555 171.26 220.555C170.254 220.555 169.574 221.43 169.574 222.455C169.574 223.534 170.217 224.378 171.26 224.378C171.814 224.378 172.192 224.076 172.362 223.73V223.79Z" fill="#4B4A5A"/>
<path d="M176.547 221.603C176.547 220.208 177.464 219.5 178.44 219.5C179.416 219.5 180.333 220.208 180.333 221.603C180.333 222.998 179.416 223.714 178.44 223.714C177.464 223.714 176.547 222.998 176.547 221.603ZM175.807 221.603C175.807 223.39 177.123 224.393 178.44 224.393C179.756 224.393 181.072 223.39 181.072 221.603C181.072 219.816 179.756 218.821 178.44 218.821C177.123 218.821 175.807 219.816 175.807 221.603Z" fill="#4B4A5A"/>
<path d="M183.97 220.616C183.933 220.608 183.836 220.593 183.74 220.593C183.378 220.593 182.934 220.729 182.675 221.287V220.653H181.995V224.28H182.69V222.463C182.69 221.664 183.082 221.347 183.666 221.347C183.763 221.347 183.866 221.354 183.97 221.37V220.616Z" fill="#4B4A5A"/>
<path d="M185.089 222.455C185.089 221.709 185.503 221.181 186.139 221.181C186.775 221.181 187.159 221.694 187.159 222.44C187.159 223.187 186.767 223.752 186.131 223.752C185.466 223.752 185.089 223.202 185.089 222.455ZM187.167 223.79C187.167 224.009 187.189 224.197 187.204 224.28H187.877C187.869 224.22 187.84 223.956 187.84 223.609V218.821H187.152V221.166C187.033 220.872 186.693 220.555 186.065 220.555C185.059 220.555 184.379 221.43 184.379 222.455C184.379 223.534 185.022 224.378 186.065 224.378C186.619 224.378 186.996 224.076 187.167 223.73V223.79Z" fill="#4B4A5A"/>
<path d="M189.473 222.093C189.503 221.626 189.858 221.166 190.442 221.166C191.07 221.166 191.403 221.573 191.418 222.093H189.473ZM191.522 223.036C191.388 223.443 191.1 223.767 190.523 223.767C189.924 223.767 189.466 223.315 189.451 222.666H192.128C192.135 222.621 192.143 222.531 192.143 222.44C192.143 221.309 191.529 220.54 190.434 220.54C189.54 220.54 188.734 221.317 188.734 222.455C188.734 223.684 189.569 224.393 190.523 224.393C191.351 224.393 191.921 223.888 192.121 223.247L191.522 223.036Z" fill="#4B4A5A"/>
<path d="M195.005 220.616C194.968 220.608 194.872 220.593 194.775 220.593C194.413 220.593 193.969 220.729 193.71 221.287V220.653H193.03V224.28H193.725V222.463C193.725 221.664 194.117 221.347 194.701 221.347C194.798 221.347 194.901 221.354 195.005 221.37V220.616Z" fill="#4B4A5A"/>
<path d="M195.413 223.337C195.472 223.752 195.886 224.393 196.862 224.393C197.742 224.393 198.164 223.782 198.164 223.27C198.164 222.734 197.824 222.335 197.18 222.191L196.603 222.063C196.33 222.003 196.197 221.845 196.197 221.626C196.197 221.377 196.433 221.143 196.788 221.143C197.35 221.143 197.498 221.558 197.528 221.747L198.142 221.513C198.068 221.189 197.764 220.54 196.788 220.54C196.093 220.54 195.524 221.068 195.524 221.686C195.524 222.199 195.856 222.583 196.411 222.704L197.018 222.84C197.313 222.908 197.476 223.081 197.476 223.307C197.476 223.564 197.262 223.79 196.87 223.79C196.367 223.79 196.086 223.488 196.041 223.111L195.413 223.337Z" fill="#4B4A5A"/>
<path d="M212.926 198.76V189.726H211.302C211.124 190.672 210.223 191.41 208.926 191.424V192.719H211.056V198.76H212.926Z" fill="#4B4A5A"/>
<path d="M139.354 289.744V285.71H140.441C141.41 285.71 142.209 286.389 142.209 287.738C142.209 289.08 141.395 289.744 140.426 289.744H139.354ZM140.449 290.4C141.78 290.4 142.956 289.488 142.956 287.738C142.956 285.982 141.795 285.054 140.463 285.054H138.629V290.4H140.449Z" fill="#4B4A5A"/>
<path d="M144.329 288.213C144.359 287.746 144.714 287.286 145.298 287.286C145.926 287.286 146.259 287.693 146.274 288.213H144.329ZM146.378 289.156C146.244 289.563 145.956 289.887 145.379 289.887C144.78 289.887 144.322 289.435 144.307 288.786H146.984C146.991 288.741 146.999 288.651 146.999 288.56C146.999 287.429 146.385 286.66 145.29 286.66C144.396 286.66 143.59 287.437 143.59 288.575C143.59 289.804 144.425 290.513 145.379 290.513C146.207 290.513 146.777 290.008 146.977 289.367L146.378 289.156Z" fill="#4B4A5A"/>
<path d="M148.581 290.4V284.941H147.886V290.4H148.581Z" fill="#4B4A5A"/>
<path d="M150.452 290.4V286.773H149.764V290.4H150.452ZM149.608 285.401C149.608 285.68 149.83 285.906 150.104 285.906C150.385 285.906 150.607 285.68 150.607 285.401C150.607 285.114 150.385 284.888 150.104 284.888C149.83 284.888 149.608 285.114 149.608 285.401Z" fill="#4B4A5A"/>
<path d="M154.681 286.773H153.934L152.914 289.571L151.9 286.773H151.117L152.559 290.4H153.261L154.681 286.773Z" fill="#4B4A5A"/>
<path d="M155.689 288.213C155.719 287.746 156.074 287.286 156.658 287.286C157.286 287.286 157.619 287.693 157.634 288.213H155.689ZM157.738 289.156C157.604 289.563 157.316 289.887 156.739 289.887C156.14 289.887 155.682 289.435 155.667 288.786H158.344C158.351 288.741 158.359 288.651 158.359 288.56C158.359 287.429 157.745 286.66 156.65 286.66C155.756 286.66 154.95 287.437 154.95 288.575C154.95 289.804 155.785 290.513 156.739 290.513C157.567 290.513 158.137 290.008 158.337 289.367L157.738 289.156Z" fill="#4B4A5A"/>
<path d="M161.221 286.736C161.184 286.728 161.088 286.713 160.991 286.713C160.629 286.713 160.185 286.849 159.926 287.407V286.773H159.246V290.4H159.941V288.583C159.941 287.784 160.333 287.467 160.917 287.467C161.014 287.467 161.117 287.474 161.221 287.49V286.736Z" fill="#4B4A5A"/>
<path d="M162.377 288.213C162.406 287.746 162.761 287.286 163.345 287.286C163.974 287.286 164.307 287.693 164.321 288.213H162.377ZM164.425 289.156C164.292 289.563 164.003 289.887 163.427 289.887C162.828 289.887 162.369 289.435 162.354 288.786H165.031C165.039 288.741 165.046 288.651 165.046 288.56C165.046 287.429 164.432 286.66 163.338 286.66C162.443 286.66 161.637 287.437 161.637 288.575C161.637 289.804 162.473 290.513 163.427 290.513C164.255 290.513 164.824 290.008 165.024 289.367L164.425 289.156Z" fill="#4B4A5A"/>
<path d="M166.348 288.575C166.348 287.829 166.762 287.301 167.398 287.301C168.034 287.301 168.418 287.814 168.418 288.56C168.418 289.307 168.026 289.872 167.39 289.872C166.725 289.872 166.348 289.322 166.348 288.575ZM168.426 289.91C168.426 290.129 168.448 290.317 168.463 290.4H169.136C169.128 290.34 169.099 290.076 169.099 289.729V284.941H168.411V287.286C168.293 286.992 167.952 286.675 167.324 286.675C166.318 286.675 165.638 287.55 165.638 288.575C165.638 289.654 166.281 290.498 167.324 290.498C167.879 290.498 168.256 290.196 168.426 289.85V289.91Z" fill="#4B4A5A"/>
<path d="M172.611 287.723C172.611 286.328 173.528 285.62 174.504 285.62C175.48 285.62 176.397 286.328 176.397 287.723C176.397 289.118 175.48 289.834 174.504 289.834C173.528 289.834 172.611 289.118 172.611 287.723ZM171.871 287.723C171.871 289.51 173.187 290.513 174.504 290.513C175.82 290.513 177.137 289.51 177.137 287.723C177.137 285.936 175.82 284.941 174.504 284.941C173.187 284.941 171.871 285.936 171.871 287.723Z" fill="#4B4A5A"/>
<path d="M180.034 286.736C179.997 286.728 179.901 286.713 179.804 286.713C179.442 286.713 178.998 286.849 178.739 287.407V286.773H178.059V290.4H178.754V288.583C178.754 287.784 179.146 287.467 179.73 287.467C179.827 287.467 179.93 287.474 180.034 287.49V286.736Z" fill="#4B4A5A"/>
<path d="M181.153 288.575C181.153 287.829 181.567 287.301 182.203 287.301C182.839 287.301 183.223 287.814 183.223 288.56C183.223 289.307 182.831 289.872 182.195 289.872C181.53 289.872 181.153 289.322 181.153 288.575ZM183.231 289.91C183.231 290.129 183.253 290.317 183.268 290.4H183.941C183.933 290.34 183.904 290.076 183.904 289.729V284.941H183.216V287.286C183.098 286.992 182.757 286.675 182.129 286.675C181.123 286.675 180.443 287.55 180.443 288.575C180.443 289.654 181.086 290.498 182.129 290.498C182.683 290.498 183.061 290.196 183.231 289.85V289.91Z" fill="#4B4A5A"/>
<path d="M185.537 288.213C185.567 287.746 185.922 287.286 186.506 287.286C187.134 287.286 187.467 287.693 187.482 288.213H185.537ZM187.586 289.156C187.452 289.563 187.164 289.887 186.587 289.887C185.988 289.887 185.53 289.435 185.515 288.786H188.192C188.199 288.741 188.207 288.651 188.207 288.56C188.207 287.429 187.593 286.66 186.498 286.66C185.604 286.66 184.798 287.437 184.798 288.575C184.798 289.804 185.633 290.513 186.587 290.513C187.416 290.513 187.985 290.008 188.185 289.367L187.586 289.156Z" fill="#4B4A5A"/>
<path d="M191.069 286.736C191.032 286.728 190.936 286.713 190.839 286.713C190.477 286.713 190.033 286.849 189.775 287.407V286.773H189.094V290.4H189.789V288.583C189.789 287.784 190.181 287.467 190.765 287.467C190.862 287.467 190.965 287.474 191.069 287.49V286.736Z" fill="#4B4A5A"/>
<path d="M191.477 289.457C191.536 289.872 191.95 290.513 192.926 290.513C193.806 290.513 194.228 289.902 194.228 289.39C194.228 288.854 193.888 288.455 193.244 288.311L192.667 288.183C192.394 288.123 192.261 287.965 192.261 287.746C192.261 287.497 192.497 287.263 192.852 287.263C193.414 287.263 193.562 287.678 193.592 287.867L194.206 287.633C194.132 287.309 193.828 286.66 192.852 286.66C192.157 286.66 191.588 287.188 191.588 287.806C191.588 288.319 191.921 288.703 192.475 288.824L193.082 288.96C193.377 289.028 193.54 289.201 193.54 289.427C193.54 289.684 193.326 289.91 192.934 289.91C192.431 289.91 192.15 289.608 192.105 289.231L191.477 289.457Z" fill="#4B4A5A"/>
<path d="M210.947 260.37C210.947 259.423 211.083 258.616 211.424 258.073C211.697 257.628 212.121 257.335 212.762 257.335C213.418 257.335 213.814 257.628 214.087 258.073C214.442 258.616 214.578 259.423 214.578 260.37C214.578 261.316 214.442 262.124 214.087 262.667C213.814 263.112 213.418 263.404 212.762 263.404C212.121 263.404 211.697 263.112 211.424 262.667C211.083 262.124 210.947 261.316 210.947 260.37ZM209.062 260.37C209.062 261.525 209.24 262.653 209.841 263.585C210.428 264.476 211.383 265.103 212.762 265.103C214.141 265.103 215.097 264.476 215.67 263.585C216.271 262.653 216.462 261.525 216.462 260.37C216.462 259.215 216.271 258.087 215.67 257.154C215.097 256.263 214.141 255.637 212.762 255.637C211.383 255.637 210.428 256.263 209.841 257.154C209.24 258.087 209.062 259.215 209.062 260.37Z" fill="#4B4A5A"/>
<path d="M144.222 262.22V264.88H145.359V262.22C145.359 261.915 145.238 261.616 145.026 261.4L143.888 260.24L145.359 258.74L146.497 259.9C146.709 260.116 147.002 260.24 147.301 260.24H149.341V259.08H147.301L145.193 256.93C144.97 256.703 144.611 256.703 144.388 256.93L142.515 258.84C142.3 259.059 142.182 259.35 142.182 259.66C142.182 259.97 142.3 260.261 142.515 260.48L144.222 262.22Z" fill="#9B51E0"/>
<path d="M147.066 257.34C147.694 257.34 148.204 256.821 148.204 256.18C148.204 255.539 147.694 255.02 147.066 255.02C146.438 255.02 145.928 255.539 145.928 256.18C145.928 256.821 146.438 257.34 147.066 257.34Z" fill="#9B51E0"/>
<path d="M148.204 261.4C146.949 261.4 145.928 262.44 145.928 263.72C145.928 264.999 146.949 266.04 148.204 266.04C149.459 266.04 150.479 264.999 150.479 263.72C150.479 262.44 149.459 261.4 148.204 261.4ZM148.204 264.88C147.576 264.88 147.066 264.36 147.066 263.72C147.066 263.08 147.576 262.56 148.204 262.56C148.831 262.56 149.342 263.08 149.342 263.72C149.342 264.36 148.831 264.88 148.204 264.88ZM141.378 266.04C142.632 266.04 143.653 264.999 143.653 263.72C143.653 262.44 142.632 261.4 141.378 261.4C140.123 261.4 139.102 262.44 139.102 263.72C139.102 264.999 140.123 266.04 141.378 266.04ZM141.378 262.56C142.005 262.56 142.515 263.08 142.515 263.72C142.515 264.36 142.005 264.88 141.378 264.88C140.75 264.88 140.24 264.36 140.24 263.72C140.24 263.08 140.75 262.56 141.378 262.56Z" fill="#9B51E0"/>
<g filter="url(#filter6_d)">
<rect x="26" y="75" width="199" height="95" rx="4" fill="white"/>
</g>
<line x1="26" y1="135.618" x2="225" y2="135.618" stroke="#EDEDED" stroke-width="0.5"/>
<path d="M43.3374 90.82H41.5979V95.479H40.9734V90.82H39.2339V90.2432H43.3374V90.82Z" fill="#4B4A5A"/>
<path d="M42.9426 93.7485C42.9426 93.4773 42.9897 93.2308 43.0838 93.009C43.178 92.7871 43.3069 92.5973 43.4704 92.4395C43.6339 92.2768 43.8297 92.1511 44.0577 92.0624C44.2857 91.9736 44.5334 91.9293 44.8011 91.9293C45.0687 91.9293 45.3165 91.9736 45.5445 92.0624C45.7724 92.1511 45.9682 92.2768 46.1317 92.4395C46.2953 92.5973 46.4241 92.7871 46.5183 93.009C46.6125 93.2308 46.6595 93.4773 46.6595 93.7485C46.6595 94.0196 46.6125 94.2661 46.5183 94.488C46.4241 94.7099 46.2953 94.9021 46.1317 95.0648C45.9682 95.2226 45.7724 95.3458 45.5445 95.4346C45.3165 95.5233 45.0687 95.5677 44.8011 95.5677C44.5334 95.5677 44.2857 95.5233 44.0577 95.4346C43.8297 95.3458 43.6339 95.2226 43.4704 95.0648C43.3069 94.9021 43.178 94.7099 43.0838 94.488C42.9897 94.2661 42.9426 94.0196 42.9426 93.7485ZM43.567 93.7485C43.567 93.9309 43.5943 94.101 43.6488 94.2588C43.7083 94.4116 43.7925 94.5472 43.9016 94.6655C44.0106 94.7789 44.1395 94.8701 44.2881 94.9391C44.4418 95.0032 44.6127 95.0353 44.8011 95.0353C44.9894 95.0353 45.1579 95.0032 45.3066 94.9391C45.4602 94.8701 45.5915 94.7789 45.7006 94.6655C45.8096 94.5472 45.8914 94.4116 45.9459 94.2588C46.0054 94.101 46.0351 93.9309 46.0351 93.7485C46.0351 93.5661 46.0054 93.3984 45.9459 93.2456C45.8914 93.0878 45.8096 92.9523 45.7006 92.8389C45.5915 92.7205 45.4602 92.6293 45.3066 92.5653C45.1579 92.4962 44.9894 92.4617 44.8011 92.4617C44.6127 92.4617 44.4418 92.4962 44.2881 92.5653C44.1395 92.6293 44.0106 92.7205 43.9016 92.8389C43.7925 92.9523 43.7083 93.0878 43.6488 93.2456C43.5943 93.3984 43.567 93.5661 43.567 93.7485Z" fill="#4B4A5A"/>
<path d="M49.4603 92.5061H48.4344V94.2366C48.4344 94.35 48.4369 94.456 48.4418 94.5546C48.4468 94.6482 48.4666 94.732 48.5013 94.806C48.536 94.875 48.588 94.9317 48.6574 94.9761C48.7268 95.0155 48.8259 95.0353 48.9548 95.0353C49.039 95.0353 49.1257 95.0254 49.215 95.0057C49.3042 94.9859 49.3884 94.9564 49.4677 94.9169L49.49 95.442C49.3909 95.4864 49.2794 95.5184 49.1555 95.5381C49.0365 95.5578 48.9226 95.5677 48.8135 95.5677C48.6054 95.5677 48.4393 95.5406 48.3155 95.4864C48.1916 95.4321 48.0949 95.3557 48.0255 95.2571C47.9561 95.1585 47.9091 95.0377 47.8843 94.8947C47.8645 94.7468 47.8545 94.5841 47.8545 94.4067V92.5061H47.0963V92.018H47.8545V91.0344H48.4344V92.018H49.4603V92.5061Z" fill="#4B4A5A"/>
<path d="M50.1261 92.4617C50.3045 92.2793 50.5151 92.1462 50.758 92.0624C51.0058 91.9736 51.256 91.9293 51.5088 91.9293C52.0242 91.9293 52.3959 92.0501 52.6239 92.2916C52.8518 92.5332 52.9658 92.9005 52.9658 93.3935V94.88C52.9658 94.9786 52.9708 95.0821 52.9807 95.1905C52.9906 95.2941 53.003 95.3902 53.0179 95.479H52.4603C52.4405 95.4001 52.4281 95.3138 52.4231 95.2201C52.4231 95.1215 52.4231 95.0353 52.4231 94.9613H52.4083C52.2943 95.1388 52.1407 95.2842 51.9474 95.3976C51.7591 95.511 51.5311 95.5677 51.2635 95.5677C51.085 95.5677 50.9165 95.5455 50.758 95.5011C50.6043 95.4568 50.468 95.3927 50.3491 95.3089C50.2351 95.2201 50.1434 95.1117 50.074 94.9835C50.0047 94.8553 49.97 94.7074 49.97 94.5398C49.97 94.2538 50.0443 94.0295 50.193 93.8668C50.3417 93.7041 50.525 93.5833 50.7431 93.5044C50.9661 93.4256 51.204 93.3763 51.4567 93.3565C51.7144 93.3368 51.9499 93.327 52.163 93.327H52.386V93.2234C52.386 92.972 52.3092 92.7822 52.1555 92.654C52.0069 92.5258 51.7962 92.4617 51.5236 92.4617C51.3353 92.4617 51.1495 92.4938 50.9661 92.5579C50.7877 92.617 50.6291 92.7107 50.4903 92.8389L50.1261 92.4617ZM51.8061 93.815C51.4344 93.815 51.1396 93.8668 50.9215 93.9703C50.7034 94.0739 50.5944 94.244 50.5944 94.4806C50.5944 94.6975 50.6663 94.8528 50.81 94.9465C50.9587 95.0353 51.142 95.0796 51.3601 95.0796C51.5286 95.0796 51.6748 95.0525 51.7987 94.9983C51.9276 94.9391 52.0341 94.8627 52.1184 94.769C52.2026 94.6754 52.267 94.5669 52.3116 94.4436C52.3562 94.3155 52.381 94.1799 52.386 94.0369V93.815H51.8061Z" fill="#4B4A5A"/>
<path d="M54.0776 89.8882H54.6574V95.479H54.0776V89.8882Z" fill="#4B4A5A"/>
<path d="M60.4823 91.1676C60.3782 90.9999 60.2395 90.8791 60.066 90.8052C59.8926 90.7263 59.7117 90.6869 59.5233 90.6869C59.3846 90.6869 59.2483 90.7041 59.1145 90.7386C58.9807 90.7731 58.8592 90.8249 58.7502 90.8939C58.6461 90.963 58.5619 91.0542 58.4975 91.1676C58.433 91.2809 58.4008 91.4141 58.4008 91.5669C58.4008 91.6852 58.4182 91.7912 58.4529 91.8849C58.4925 91.9736 58.5545 92.055 58.6387 92.1289C58.723 92.2029 58.8369 92.2719 58.9807 92.336C59.1244 92.4001 59.3003 92.4642 59.5085 92.5283C59.7117 92.5924 59.9074 92.6614 60.0958 92.7353C60.289 92.8093 60.4575 92.903 60.6013 93.0164C60.7499 93.1298 60.8664 93.2727 60.9507 93.4453C61.0399 93.6129 61.0845 93.8249 61.0845 94.0813C61.0845 94.3426 61.0324 94.5694 60.9284 94.7616C60.8243 94.9539 60.6855 95.1141 60.5121 95.2423C60.3436 95.3656 60.1478 95.4568 59.9248 95.5159C59.7018 95.58 59.4713 95.6121 59.2334 95.6121C59.0798 95.6121 58.9262 95.5973 58.7725 95.5677C58.6189 95.5431 58.4702 95.5036 58.3265 95.4494C58.1877 95.3902 58.0564 95.3163 57.9325 95.2275C57.8086 95.1339 57.702 95.0205 57.6128 94.8873L58.1481 94.451C58.2621 94.6433 58.4206 94.7887 58.6238 94.8873C58.827 94.9859 59.0426 95.0353 59.2706 95.0353C59.4044 95.0353 59.5382 95.0155 59.672 94.9761C59.8108 94.9366 59.9347 94.88 60.0437 94.806C60.1527 94.7271 60.242 94.631 60.3113 94.5176C60.3807 94.4042 60.4154 94.2735 60.4154 94.1256C60.4154 93.9629 60.3882 93.8323 60.3336 93.7337C60.2791 93.6302 60.1949 93.5414 60.0809 93.4675C59.9669 93.3935 59.8232 93.327 59.6497 93.2678C59.4763 93.2086 59.2731 93.1396 59.0401 93.0607C58.8518 93.0016 58.6784 92.935 58.5198 92.8611C58.3612 92.7822 58.2224 92.6885 58.1035 92.58C57.9895 92.4666 57.8978 92.3335 57.8284 92.1807C57.764 92.0229 57.7318 91.8356 57.7318 91.6187C57.7318 91.3672 57.7813 91.1478 57.8804 90.9605C57.9796 90.7731 58.1134 90.6178 58.2819 90.4946C58.4504 90.3664 58.6412 90.2703 58.8543 90.2062C59.0674 90.1421 59.2904 90.11 59.5233 90.11C59.8207 90.11 60.0908 90.1569 60.3336 90.2505C60.5814 90.3393 60.802 90.4971 60.9953 90.7238L60.4823 91.1676Z" fill="#4B4A5A"/>
<path d="M61.9666 92.4617C62.145 92.2793 62.3556 92.1462 62.5985 92.0624C62.8463 91.9736 63.0966 91.9293 63.3493 91.9293C63.8647 91.9293 64.2364 92.0501 64.4644 92.2916C64.6924 92.5332 64.8064 92.9005 64.8064 93.3935V94.88C64.8064 94.9786 64.8113 95.0821 64.8212 95.1905C64.8311 95.2941 64.8435 95.3902 64.8584 95.479H64.3008C64.281 95.4001 64.2686 95.3138 64.2637 95.2201C64.2637 95.1215 64.2637 95.0353 64.2637 94.9613H64.2488C64.1348 95.1388 63.9812 95.2842 63.7879 95.3976C63.5996 95.511 63.3716 95.5677 63.104 95.5677C62.9256 95.5677 62.7571 95.5455 62.5985 95.5011C62.4448 95.4568 62.3086 95.3927 62.1896 95.3089C62.0756 95.2201 61.9839 95.1117 61.9146 94.9835C61.8452 94.8553 61.8105 94.7074 61.8105 94.5398C61.8105 94.2538 61.8848 94.0295 62.0335 93.8668C62.1822 93.7041 62.3656 93.5833 62.5836 93.5044C62.8066 93.4256 63.0445 93.3763 63.2973 93.3565C63.555 93.3368 63.7904 93.327 64.0035 93.327H64.2265V93.2234C64.2265 92.972 64.1497 92.7822 63.9961 92.654C63.8474 92.5258 63.6368 92.4617 63.3642 92.4617C63.1759 92.4617 62.99 92.4938 62.8066 92.5579C62.6282 92.617 62.4696 92.7107 62.3309 92.8389L61.9666 92.4617ZM63.6467 93.815C63.275 93.815 62.9801 93.8668 62.762 93.9703C62.544 94.0739 62.4349 94.244 62.4349 94.4806C62.4349 94.6975 62.5068 94.8528 62.6505 94.9465C62.7992 95.0353 62.9826 95.0796 63.2006 95.0796C63.3691 95.0796 63.5153 95.0525 63.6392 94.9983C63.7681 94.9391 63.8746 94.8627 63.9589 94.769C64.0431 94.6754 64.1076 94.5669 64.1522 94.4436C64.1968 94.3155 64.2216 94.1799 64.2265 94.0369V93.815H63.6467Z" fill="#4B4A5A"/>
<path d="M65.9181 89.8882H66.498V95.479H65.9181V89.8882Z" fill="#4B4A5A"/>
<path d="M70.7593 94.8504C70.5512 95.1166 70.3232 95.3039 70.0754 95.4124C69.8276 95.5159 69.5402 95.5677 69.2131 95.5677C68.9405 95.5677 68.6952 95.5209 68.4771 95.4272C68.2591 95.3286 68.0732 95.1979 67.9196 95.0353C67.7709 94.8726 67.6544 94.6803 67.5702 94.4584C67.4909 94.2366 67.4513 93.9999 67.4513 93.7485C67.4513 93.4823 67.4959 93.2382 67.5851 93.0164C67.6743 92.7896 67.7982 92.5973 67.9568 92.4395C68.1154 92.2768 68.3037 92.1511 68.5217 92.0624C68.7398 91.9736 68.9777 91.9293 69.2354 91.9293C69.4782 91.9293 69.7013 91.9712 69.9044 92.055C70.1076 92.1339 70.2811 92.2522 70.4248 92.41C70.5735 92.5628 70.6875 92.7526 70.7668 92.9794C70.8461 93.2012 70.8857 93.4551 70.8857 93.7411V93.926H68.0757C68.0856 94.0739 68.1203 94.2168 68.1798 94.3549C68.2442 94.488 68.326 94.6063 68.4251 94.7099C68.5242 94.8085 68.6407 94.8873 68.7745 94.9465C68.9083 95.0057 69.0545 95.0353 69.2131 95.0353C69.4658 95.0353 69.679 94.9909 69.8524 94.9021C70.0259 94.8134 70.182 94.6827 70.3207 94.5102L70.7593 94.8504ZM70.2613 93.4379C70.2514 93.1421 70.1547 92.9054 69.9714 92.7279C69.788 92.5505 69.5352 92.4617 69.2131 92.4617C68.891 92.4617 68.6308 92.5505 68.4325 92.7279C68.2343 92.9054 68.1154 93.1421 68.0757 93.4379H70.2613Z" fill="#4B4A5A"/>
<path d="M71.8571 94.5694C71.9711 94.7123 72.095 94.8257 72.2288 94.9095C72.3675 94.9933 72.541 95.0353 72.7491 95.0353C72.8383 95.0353 72.9276 95.0254 73.0168 95.0057C73.1109 94.9859 73.1952 94.9539 73.2695 94.9095C73.3438 94.8652 73.4033 94.8109 73.4479 94.7468C73.4925 94.6778 73.5148 94.5965 73.5148 94.5028C73.5148 94.4091 73.4925 94.3327 73.4479 94.2735C73.4083 94.2144 73.3538 94.1651 73.2844 94.1256C73.215 94.0813 73.1357 94.0468 73.0465 94.0221C72.9573 93.9975 72.8656 93.9753 72.7714 93.9555C72.6079 93.921 72.4518 93.8816 72.3031 93.8372C72.1544 93.7929 72.0231 93.7362 71.9091 93.6671C71.8001 93.5932 71.7109 93.4995 71.6415 93.3861C71.5771 93.2727 71.5448 93.1273 71.5448 92.9498C71.5448 92.7822 71.582 92.6343 71.6564 92.5061C71.7307 92.3779 71.8298 92.2719 71.9537 92.1881C72.0776 92.1043 72.2164 92.0402 72.37 91.9958C72.5236 91.9514 72.6822 91.9293 72.8458 91.9293C73.0936 91.9293 73.3215 91.9786 73.5297 92.0772C73.7428 92.1758 73.9088 92.336 74.0278 92.5579L73.5446 92.8758C73.4702 92.7526 73.3711 92.654 73.2472 92.58C73.1283 92.5012 72.9821 92.4617 72.8086 92.4617C72.7293 92.4617 72.6475 92.4716 72.5633 92.4913C72.484 92.511 72.4121 92.5406 72.3477 92.58C72.2833 92.6195 72.2288 92.6712 72.1842 92.7353C72.1445 92.7945 72.1247 92.8635 72.1247 92.9424C72.1247 93.0164 72.147 93.0805 72.1916 93.1347C72.2412 93.184 72.3056 93.2284 72.3849 93.2678C72.4691 93.3072 72.5633 93.3417 72.6674 93.3713C72.7764 93.4009 72.8879 93.4256 73.0019 93.4453C73.1555 93.4749 73.3017 93.5143 73.4405 93.5636C73.5793 93.608 73.7007 93.6696 73.8048 93.7485C73.9088 93.8274 73.9906 93.926 74.0501 94.0443C74.1095 94.1626 74.1393 94.3081 74.1393 94.4806C74.1393 94.6778 74.0996 94.8454 74.0203 94.9835C73.941 95.1215 73.8345 95.2349 73.7007 95.3237C73.5718 95.4075 73.4231 95.4691 73.2546 95.5085C73.0911 95.548 72.9226 95.5677 72.7491 95.5677C72.4518 95.5677 72.1941 95.5233 71.976 95.4346C71.7629 95.3409 71.5696 95.1708 71.3962 94.9243L71.8571 94.5694Z" fill="#4B4A5A"/>
<path d="M51.1333 114.82V101.914H48.6081V110.451L43.2099 101.914H40.0625V114.82H42.5877V105.664L48.48 114.82H51.1333Z" fill="#1C1C19"/>
<path d="M65.8383 114.82V108.103H59.3605V110.288H63.4594C63.313 111.198 62.3798 112.8 59.9827 112.8C57.8051 112.8 55.8837 111.289 55.8837 108.376C55.8837 105.318 58.0064 103.989 59.9644 103.989C62.0687 103.989 63.1484 105.318 63.4777 106.465L65.8932 105.609C65.2527 103.625 63.3679 101.641 59.9644 101.641C56.451 101.641 53.3219 104.208 53.3219 108.376C53.3219 112.545 56.3046 115.093 59.7997 115.093C61.7576 115.093 63.0386 114.22 63.6241 113.346L63.7888 114.82H65.8383Z" fill="#1C1C19"/>
<path d="M79.4572 114.82V101.914H76.932V110.451L71.5338 101.914H68.3864V114.82H70.9116V105.664L76.8039 114.82H79.4572Z" fill="#1C1C19"/>
<path d="M88.7287 108.922C88.7287 107.684 88.9117 106.629 89.3692 105.919C89.7352 105.336 90.3024 104.954 91.1625 104.954C92.0408 104.954 92.5715 105.336 92.9375 105.919C93.4132 106.629 93.5962 107.684 93.5962 108.922C93.5962 110.16 93.4132 111.216 92.9375 111.926C92.5715 112.508 92.0408 112.891 91.1625 112.891C90.3024 112.891 89.7352 112.508 89.3692 111.926C88.9117 111.216 88.7287 110.16 88.7287 108.922ZM86.2035 108.922C86.2035 110.433 86.4414 111.908 87.2465 113.127C88.0334 114.292 89.3143 115.112 91.1625 115.112C93.0107 115.112 94.2916 114.292 95.0601 113.127C95.8653 111.908 96.1215 110.433 96.1215 108.922C96.1215 107.411 95.8653 105.937 95.0601 104.717C94.2916 103.552 93.0107 102.733 91.1625 102.733C89.3143 102.733 88.0334 103.552 87.2465 104.717C86.4414 105.937 86.2035 107.411 86.2035 108.922Z" fill="#1C1C19"/>
<path d="M97.3106 113.291C97.3106 114.201 98.0608 114.948 98.9758 114.948C99.909 114.948 100.659 114.201 100.659 113.291C100.659 112.381 99.909 111.635 98.9758 111.635C98.0608 111.635 97.3106 112.381 97.3106 113.291Z" fill="#1C1C19"/>
<path d="M104.74 108.922C104.74 107.684 104.923 106.629 105.381 105.919C105.747 105.336 106.314 104.954 107.174 104.954C108.052 104.954 108.583 105.336 108.949 105.919C109.425 106.629 109.608 107.684 109.608 108.922C109.608 110.16 109.425 111.216 108.949 111.926C108.583 112.508 108.052 112.891 107.174 112.891C106.314 112.891 105.747 112.508 105.381 111.926C104.923 111.216 104.74 110.16 104.74 108.922ZM102.215 108.922C102.215 110.433 102.453 111.908 103.258 113.127C104.045 114.292 105.326 115.112 107.174 115.112C109.022 115.112 110.303 114.292 111.072 113.127C111.877 111.908 112.133 110.433 112.133 108.922C112.133 107.411 111.877 105.937 111.072 104.717C110.303 103.552 109.022 102.733 107.174 102.733C105.326 102.733 104.045 103.552 103.258 104.717C102.453 105.937 102.215 107.411 102.215 108.922Z" fill="#1C1C19"/>
<path d="M116.123 108.922C116.123 107.684 116.306 106.629 116.764 105.919C117.13 105.336 117.697 104.954 118.557 104.954C119.435 104.954 119.966 105.336 120.332 105.919C120.808 106.629 120.991 107.684 120.991 108.922C120.991 110.16 120.808 111.216 120.332 111.926C119.966 112.508 119.435 112.891 118.557 112.891C117.697 112.891 117.13 112.508 116.764 111.926C116.306 111.216 116.123 110.16 116.123 108.922ZM113.598 108.922C113.598 110.433 113.836 111.908 114.641 113.127C115.428 114.292 116.709 115.112 118.557 115.112C120.405 115.112 121.686 114.292 122.455 113.127C123.26 111.908 123.516 110.433 123.516 108.922C123.516 107.411 123.26 105.937 122.455 104.717C121.686 103.552 120.405 102.733 118.557 102.733C116.709 102.733 115.428 103.552 114.641 104.717C113.836 105.937 113.598 107.411 113.598 108.922Z" fill="#1C1C19"/>
<path d="M205.844 155.209L208.703 152.365L205.844 149.521" stroke="#A6AAB4" stroke-width="1.5" stroke-linecap="round" stroke-linejoin="round"/>
<path d="M39.7241 147.245V156.916C39.7241 157.231 39.9797 157.485 40.296 157.485H50.0172V156.347H40.8678V147.245H39.7241Z" fill="#30C684"/>
<path d="M46.7539 153.905C46.9775 154.127 47.3389 154.127 47.5625 153.905L50.4217 151.061L49.6131 150.256L47.1582 152.698L45.847 151.394C45.6234 151.172 45.262 151.172 45.0384 151.394L42.1792 154.238L42.9878 155.043L45.4427 152.601L46.7539 153.905Z" fill="#30C684"/>
<path d="M69.2265 154.206L67.5133 149.563H66.6807L68.8182 155.209H69.5948L71.7803 149.563H70.9557L69.2265 154.206Z" fill="#4B4A5A"/>
<path d="M73.2472 155.209V151.379H72.5027V155.209H73.2472ZM72.3345 149.929C72.3345 150.224 72.5747 150.463 72.8709 150.463C73.1751 150.463 73.4153 150.224 73.4153 149.929C73.4153 149.627 73.1751 149.388 72.8709 149.388C72.5747 149.388 72.3345 149.627 72.3345 149.929Z" fill="#4B4A5A"/>
<path d="M75.0159 152.9C75.0479 152.406 75.4322 151.92 76.0647 151.92C76.7451 151.92 77.1054 152.35 77.1214 152.9H75.0159ZM77.2335 153.895C77.0894 154.325 76.7772 154.668 76.1527 154.668C75.5042 154.668 75.0079 154.19 74.9919 153.505H77.89C77.898 153.457 77.906 153.362 77.906 153.266C77.906 152.072 77.2415 151.259 76.0566 151.259C75.088 151.259 74.2153 152.08 74.2153 153.282C74.2153 154.58 75.12 155.329 76.1527 155.329C77.0494 155.329 77.6658 154.795 77.882 154.118L77.2335 153.895Z" fill="#4B4A5A"/>
<path d="M80.9971 151.379L79.9963 154.262L79.1317 151.379H78.3071L79.572 155.209H80.3646L81.3653 152.295L82.3901 155.209H83.1666L84.4155 151.379H83.623L82.7743 154.262L81.7736 151.379H80.9971Z" fill="#4B4A5A"/>
<path d="M90.1954 155.209H91.1081L89.7551 152.844C90.6117 152.685 91.1321 152.056 91.1321 151.243C91.1321 150.312 90.4676 149.563 89.3948 149.563H87.2573V155.209H88.0499V152.9H88.8985L90.1954 155.209ZM88.0499 152.199V150.264H89.2507C89.8912 150.264 90.3235 150.646 90.3235 151.243C90.3235 151.825 89.8912 152.199 89.2507 152.199H88.0499Z" fill="#4B4A5A"/>
<path d="M92.4659 152.9C92.4979 152.406 92.8822 151.92 93.5147 151.92C94.1952 151.92 94.5554 152.35 94.5714 152.9H92.4659ZM94.6835 153.895C94.5394 154.325 94.2272 154.668 93.6027 154.668C92.9543 154.668 92.4579 154.19 92.4419 153.505H95.34C95.348 153.457 95.356 153.362 95.356 153.266C95.356 152.072 94.6915 151.259 93.5067 151.259C92.538 151.259 91.6653 152.08 91.6653 153.282C91.6653 154.58 92.57 155.329 93.6027 155.329C94.4994 155.329 95.1158 154.795 95.332 154.118L94.6835 153.895Z" fill="#4B4A5A"/>
<path d="M97.0612 156.723V154.692C97.2693 155.034 97.7176 155.313 98.3101 155.313C99.4389 155.313 100.103 154.429 100.103 153.29C100.103 152.175 99.4869 151.291 98.3341 151.291C97.7096 151.291 97.2533 151.594 97.0452 151.976V151.379H96.3166V156.723H97.0612ZM99.3348 153.29C99.3348 154.079 98.8945 154.644 98.198 154.644C97.5095 154.644 97.0532 154.079 97.0532 153.29C97.0532 152.526 97.5095 151.952 98.198 151.952C98.9025 151.952 99.3348 152.526 99.3348 153.29Z" fill="#4B4A5A"/>
<path d="M102.711 154.66C102.071 154.66 101.511 154.182 101.511 153.29C101.511 152.406 102.071 151.928 102.711 151.928C103.352 151.928 103.912 152.406 103.912 153.29C103.912 154.182 103.352 154.66 102.711 154.66ZM102.711 151.259C101.559 151.259 100.742 152.127 100.742 153.29C100.742 154.461 101.559 155.329 102.711 155.329C103.864 155.329 104.681 154.461 104.681 153.29C104.681 152.127 103.864 151.259 102.711 151.259Z" fill="#4B4A5A"/>
<path d="M107.781 151.339C107.741 151.331 107.637 151.315 107.533 151.315C107.141 151.315 106.66 151.458 106.38 152.048V151.379H105.644V155.209H106.396V153.29C106.396 152.446 106.82 152.111 107.453 152.111C107.557 152.111 107.669 152.119 107.781 152.135V151.339Z" fill="#4B4A5A"/>
<path d="M109.795 150.168H109.107V150.789C109.107 151.124 108.931 151.379 108.514 151.379H108.306V152.056H109.043V154.158C109.043 154.851 109.459 155.249 110.115 155.249C110.372 155.249 110.564 155.201 110.628 155.178V154.54C110.564 154.556 110.428 154.572 110.332 154.572C109.939 154.572 109.795 154.397 109.795 154.047V152.056H110.628V151.379H109.795V150.168Z" fill="#4B4A5A"/>
<path d="M206.129 110.838C206.67 110.838 207.164 110.78 207.615 110.679L206.61 109.679C206.454 109.691 206.296 109.701 206.129 109.701C203.069 109.701 201.884 107.513 201.597 106.856C201.714 106.589 201.982 106.071 202.459 105.55L201.66 104.754C200.78 105.703 200.447 106.658 200.441 106.677C200.401 106.793 200.401 106.92 200.441 107.037C200.453 107.074 201.765 110.838 206.129 110.838ZM206.129 102.874C205.079 102.874 204.216 103.1 203.497 103.432L201.387 101.334L200.579 102.139L210.872 112.378L211.68 111.574L209.782 109.686C211.277 108.576 211.811 107.061 211.819 107.037C211.858 106.92 211.858 106.793 211.819 106.677C211.806 106.639 210.494 102.874 206.129 102.874ZM208.973 108.88L207.669 107.583C207.777 107.362 207.845 107.118 207.845 106.856C207.845 105.923 207.068 105.15 206.129 105.15C205.867 105.15 205.622 105.217 205.399 105.326L204.365 104.297C204.869 104.122 205.451 104.012 206.129 104.012C209.189 104.012 210.375 106.2 210.662 106.856C210.489 107.25 209.995 108.189 208.973 108.88Z" fill="#AFBEC4"/>
</g>
</g>
<defs>
<filter id="filter0_ddi" x="-64" y="-42" width="377" height="631" filterUnits="userSpaceOnUse" color-interpolation-filters="sRGB">
<feFlood flood-opacity="0" result="BackgroundImageFix"/>
<feColorMatrix in="SourceAlpha" type="matrix" values="0 0 0 0 0 0 0 0 0 0 0 0 0 0 0 0 0 0 127 0"/>
<feOffset dy="22"/>
<feGaussianBlur stdDeviation="32"/>
<feColorMatrix type="matrix" values="0 0 0 0 0 0 0 0 0 0 0 0 0 0 0 0 0 0 0.04 0"/>
<feBlend mode="normal" in2="BackgroundImageFix" result="effect1_dropShadow"/>
<feColorMatrix in="SourceAlpha" type="matrix" values="0 0 0 0 0 0 0 0 0 0 0 0 0 0 0 0 0 0 127 0"/>
<feOffset dy="12"/>
<feGaussianBlur stdDeviation="22"/>
<feColorMatrix type="matrix" values="0 0 0 0 0 0 0 0 0 0 0 0 0 0 0 0 0 0 0.01 0"/>
<feBlend mode="normal" in2="effect1_dropShadow" result="effect2_dropShadow"/>
<feBlend mode="normal" in="SourceGraphic" in2="effect2_dropShadow" result="shape"/>
<feColorMatrix in="SourceAlpha" type="matrix" values="0 0 0 0 0 0 0 0 0 0 0 0 0 0 0 0 0 0 127 0" result="hardAlpha"/>
<feOffset dy="-8"/>
<feGaussianBlur stdDeviation="10"/>
<feComposite in2="hardAlpha" operator="arithmetic" k2="-1" k3="1"/>
<feColorMatrix type="matrix" values="0 0 0 0 0 0 0 0 0 0 0 0 0 0 0 0 0 0 0.05 0"/>
<feBlend mode="normal" in2="shape" result="effect3_innerShadow"/>
</filter>
<filter id="filter1_d" x="8" y="428" width="234" height="67" filterUnits="userSpaceOnUse" color-interpolation-filters="sRGB">
<feFlood flood-opacity="0" result="BackgroundImageFix"/>
<feColorMatrix in="SourceAlpha" type="matrix" values="0 0 0 0 0 0 0 0 0 0 0 0 0 0 0 0 0 0 127 0"/>
<feOffset dy="-1"/>
<feGaussianBlur stdDeviation="4"/>
<feColorMatrix type="matrix" values="0 0 0 0 0 0 0 0 0 0 0 0 0 0 0 0 0 0 0.09 0"/>
<feBlend mode="normal" in2="BackgroundImageFix" result="effect1_dropShadow"/>
<feBlend mode="normal" in="SourceGraphic" in2="effect1_dropShadow" result="shape"/>
</filter>
<filter id="filter2_d" x="10" y="167" width="127" height="89" filterUnits="userSpaceOnUse" color-interpolation-filters="sRGB">
<feFlood flood-opacity="0" result="BackgroundImageFix"/>
<feColorMatrix in="SourceAlpha" type="matrix" values="0 0 0 0 0 0 0 0 0 0 0 0 0 0 0 0 0 0 127 0"/>
<feOffset dy="4"/>
<feGaussianBlur stdDeviation="8"/>
<feColorMatrix type="matrix" values="0 0 0 0 0.270588 0 0 0 0 0.356863 0 0 0 0 0.388235 0 0 0 0.08 0"/>
<feBlend mode="normal" in2="BackgroundImageFix" result="effect1_dropShadow"/>
<feBlend mode="normal" in="SourceGraphic" in2="effect1_dropShadow" result="shape"/>
</filter>
<filter id="filter3_d" x="10" y="232" width="127" height="90" filterUnits="userSpaceOnUse" color-interpolation-filters="sRGB">
<feFlood flood-opacity="0" result="BackgroundImageFix"/>
<feColorMatrix in="SourceAlpha" type="matrix" values="0 0 0 0 0 0 0 0 0 0 0 0 0 0 0 0 0 0 127 0"/>
<feOffset dy="4"/>
<feGaussianBlur stdDeviation="8"/>
<feColorMatrix type="matrix" values="0 0 0 0 0.270588 0 0 0 0 0.356863 0 0 0 0 0.388235 0 0 0 0.08 0"/>
<feBlend mode="normal" in2="BackgroundImageFix" result="effect1_dropShadow"/>
<feBlend mode="normal" in="SourceGraphic" in2="effect1_dropShadow" result="shape"/>
</filter>
<filter id="filter4_d" x="114" y="167" width="127" height="89" filterUnits="userSpaceOnUse" color-interpolation-filters="sRGB">
<feFlood flood-opacity="0" result="BackgroundImageFix"/>
<feColorMatrix in="SourceAlpha" type="matrix" values="0 0 0 0 0 0 0 0 0 0 0 0 0 0 0 0 0 0 127 0"/>
<feOffset dy="4"/>
<feGaussianBlur stdDeviation="8"/>
<feColorMatrix type="matrix" values="0 0 0 0 0.270588 0 0 0 0 0.356863 0 0 0 0 0.388235 0 0 0 0.08 0"/>
<feBlend mode="normal" in2="BackgroundImageFix" result="effect1_dropShadow"/>
<feBlend mode="normal" in="SourceGraphic" in2="effect1_dropShadow" result="shape"/>
</filter>
<filter id="filter5_d" x="114" y="232" width="127" height="90" filterUnits="userSpaceOnUse" color-interpolation-filters="sRGB">
<feFlood flood-opacity="0" result="BackgroundImageFix"/>
<feColorMatrix in="SourceAlpha" type="matrix" values="0 0 0 0 0 0 0 0 0 0 0 0 0 0 0 0 0 0 127 0"/>
<feOffset dy="4"/>
<feGaussianBlur stdDeviation="8"/>
<feColorMatrix type="matrix" values="0 0 0 0 0.270588 0 0 0 0 0.356863 0 0 0 0 0.388235 0 0 0 0.08 0"/>
<feBlend mode="normal" in2="BackgroundImageFix" result="effect1_dropShadow"/>
<feBlend mode="normal" in="SourceGraphic" in2="effect1_dropShadow" result="shape"/>
</filter>
<filter id="filter6_d" x="10" y="63" width="231" height="127" filterUnits="userSpaceOnUse" color-interpolation-filters="sRGB">
<feFlood flood-opacity="0" result="BackgroundImageFix"/>
<feColorMatrix in="SourceAlpha" type="matrix" values="0 0 0 0 0 0 0 0 0 0 0 0 0 0 0 0 0 0 127 0"/>
<feOffset dy="4"/>
<feGaussianBlur stdDeviation="8"/>
<feColorMatrix type="matrix" values="0 0 0 0 0.270588 0 0 0 0 0.356863 0 0 0 0 0.388235 0 0 0 0.08 0"/>
<feBlend mode="normal" in2="BackgroundImageFix" result="effect1_dropShadow"/>
<feBlend mode="normal" in="SourceGraphic" in2="effect1_dropShadow" result="shape"/>
</filter>
<linearGradient id="paint0_linear" x1="62.25" y1="251.5" x2="62.25" y2="503" gradientUnits="userSpaceOnUse">
<stop stop-color="white"/>
<stop offset="1" stop-color="#FAFBFC"/>
</linearGradient>
<clipPath id="clip0">
<rect width="249" height="502" rx="36" fill="white"/>
</clipPath>
</defs>
</svg>
