<svg width="44" height="44" viewBox="0 0 44 44" fill="none" xmlns="http://www.w3.org/2000/svg">
    <path d="M21.9999 44C34.1502 44 43.9999 34.1503 43.9999 22C43.9999 9.84974 34.1502 0 21.9999 0C9.84967 0 -6.10352e-05 9.84974 -6.10352e-05 22C-6.10352e-05 34.1503 9.84967 44 21.9999 44Z" fill="#F2F2F2"/>
    <path d="M29.6329 18C29.6459 18.175 29.6459 18.349 29.6459 18.523C29.6447 20.5795 29.0903 22.5977 28.0409 24.3663C26.9915 26.1348 25.4858 27.5886 23.6815 28.5752C21.8772 29.5618 19.8407 30.0449 17.7855 29.974C15.7303 29.9031 13.7319 29.2807 11.9999 28.172C12.323 28.2074 12.6479 28.2241 12.9729 28.222C14.7856 28.2262 16.5469 27.62 17.9729 26.501C17.1324 26.4858 16.3175 26.2085 15.6422 25.7078C14.9668 25.207 14.4647 24.5079 14.2059 23.708C14.4577 23.7475 14.7121 23.7683 14.9669 23.77C15.3249 23.7688 15.6814 23.7228 16.0279 23.633C15.1157 23.4488 14.2954 22.9544 13.7066 22.2337C13.1177 21.513 12.7966 20.6106 12.7979 19.68V19.63C13.356 19.941 13.9795 20.1161 14.6179 20.141C13.7632 19.571 13.1581 18.6963 12.9262 17.6954C12.6943 16.6945 12.853 15.6429 13.3699 14.755C14.3821 16 15.6444 17.0185 17.0753 17.7446C18.5061 18.4707 20.0735 18.8882 21.6759 18.97C21.6114 18.6665 21.5779 18.3573 21.5759 18.047C21.5768 17.2391 21.8203 16.4502 22.2749 15.7823C22.7295 15.1145 23.3742 14.5987 24.1255 14.3017C24.8768 14.0047 25.7 13.9402 26.4883 14.1166C27.2767 14.293 27.9939 14.7022 28.5469 15.291C29.4487 15.1166 30.3135 14.7874 31.1029 14.318C30.8023 15.2488 30.1726 16.0381 29.3319 16.538C30.1317 16.4468 30.9134 16.2365 31.6509 15.914C31.1006 16.7181 30.4183 17.4233 29.6329 18Z" fill="#BDBDBD"/>
</svg>
